<svg width="1177" height="40" viewBox="0 0 1177 40" fill="none" xmlns="http://www.w3.org/2000/svg">
<path d="M267.096 21.712V26H265.552V14.536H268.936C269.661 14.536 270.291 14.6213 270.824 14.792C271.363 14.9573 271.808 15.1947 272.16 15.504C272.512 15.8133 272.773 16.1867 272.944 16.624C273.12 17.0613 273.208 17.5493 273.208 18.088C273.208 18.6213 273.115 19.1093 272.928 19.552C272.741 19.9947 272.467 20.376 272.104 20.696C271.747 21.016 271.301 21.2667 270.768 21.448C270.235 21.624 269.624 21.712 268.936 21.712H267.096ZM267.096 20.48H268.936C269.379 20.48 269.768 20.4213 270.104 20.304C270.445 20.1867 270.731 20.024 270.96 19.816C271.189 19.6027 271.363 19.3493 271.48 19.056C271.597 18.7627 271.656 18.44 271.656 18.088C271.656 17.3573 271.429 16.7867 270.976 16.376C270.528 15.9653 269.848 15.76 268.936 15.76H267.096V20.48ZM280.495 26H279.863C279.724 26 279.612 25.9787 279.527 25.936C279.442 25.8933 279.386 25.8027 279.359 25.664L279.199 24.912C278.986 25.104 278.778 25.2773 278.575 25.432C278.372 25.5813 278.159 25.7093 277.935 25.816C277.711 25.9173 277.471 25.9947 277.215 26.048C276.964 26.1013 276.684 26.128 276.375 26.128C276.06 26.128 275.764 26.0853 275.487 26C275.215 25.9093 274.978 25.776 274.775 25.6C274.572 25.424 274.41 25.2027 274.287 24.936C274.17 24.664 274.111 24.344 274.111 23.976C274.111 23.656 274.199 23.3493 274.375 23.056C274.551 22.7573 274.834 22.4933 275.223 22.264C275.618 22.0347 276.132 21.848 276.767 21.704C277.402 21.5547 278.178 21.4693 279.095 21.448V20.816C279.095 20.1867 278.959 19.712 278.687 19.392C278.42 19.0667 278.023 18.904 277.495 18.904C277.148 18.904 276.855 18.9493 276.615 19.04C276.38 19.1253 276.175 19.224 275.999 19.336C275.828 19.4427 275.679 19.5413 275.551 19.632C275.428 19.7173 275.306 19.76 275.183 19.76C275.087 19.76 275.002 19.736 274.927 19.688C274.858 19.6347 274.802 19.5707 274.759 19.496L274.503 19.04C274.951 18.608 275.434 18.2853 275.951 18.072C276.468 17.8587 277.042 17.752 277.671 17.752C278.124 17.752 278.527 17.8267 278.879 17.976C279.231 18.1253 279.527 18.3333 279.767 18.6C280.007 18.8667 280.188 19.1893 280.311 19.568C280.434 19.9467 280.495 20.3627 280.495 20.816V26ZM276.799 25.128C277.05 25.128 277.279 25.104 277.487 25.056C277.695 25.0027 277.89 24.9307 278.071 24.84C278.258 24.744 278.434 24.6293 278.599 24.496C278.77 24.3627 278.935 24.2107 279.095 24.04V22.352C278.439 22.3733 277.882 22.4267 277.423 22.512C276.964 22.592 276.591 22.6987 276.303 22.832C276.015 22.9653 275.804 23.1227 275.671 23.304C275.543 23.4853 275.479 23.688 275.479 23.912C275.479 24.1253 275.514 24.3093 275.583 24.464C275.652 24.6187 275.746 24.7467 275.863 24.848C275.98 24.944 276.119 25.016 276.279 25.064C276.439 25.1067 276.612 25.128 276.799 25.128ZM285.38 17.76C285.732 17.76 286.06 17.8 286.364 17.88C286.674 17.9547 286.954 18.0667 287.204 18.216H289.404V18.744C289.404 18.92 289.292 19.032 289.068 19.08L288.148 19.208C288.33 19.5547 288.42 19.9413 288.42 20.368C288.42 20.7627 288.343 21.1227 288.188 21.448C288.039 21.768 287.828 22.0427 287.556 22.272C287.29 22.5013 286.97 22.6773 286.596 22.8C286.228 22.9227 285.823 22.984 285.38 22.984C285.002 22.984 284.644 22.9387 284.308 22.848C284.138 22.9547 284.007 23.0693 283.916 23.192C283.831 23.3147 283.788 23.4347 283.788 23.552C283.788 23.744 283.866 23.8907 284.02 23.992C284.175 24.088 284.38 24.1573 284.636 24.2C284.892 24.2427 285.183 24.2693 285.508 24.28C285.834 24.2907 286.164 24.3093 286.5 24.336C286.842 24.3573 287.175 24.3973 287.5 24.456C287.826 24.5147 288.116 24.6107 288.372 24.744C288.628 24.8773 288.834 25.0613 288.988 25.296C289.143 25.5307 289.22 25.8347 289.22 26.208C289.22 26.5547 289.132 26.8907 288.956 27.216C288.786 27.5413 288.538 27.8293 288.212 28.08C287.887 28.336 287.49 28.5387 287.02 28.688C286.551 28.8427 286.02 28.92 285.428 28.92C284.836 28.92 284.316 28.8613 283.868 28.744C283.426 28.6267 283.058 28.4693 282.764 28.272C282.471 28.0747 282.25 27.8453 282.1 27.584C281.956 27.328 281.884 27.0587 281.884 26.776C281.884 26.376 282.01 26.0373 282.26 25.76C282.516 25.4773 282.866 25.2533 283.308 25.088C283.079 24.9813 282.895 24.84 282.756 24.664C282.623 24.4827 282.556 24.2427 282.556 23.944C282.556 23.8267 282.578 23.7067 282.62 23.584C282.663 23.456 282.727 23.3307 282.812 23.208C282.903 23.0853 283.012 22.968 283.14 22.856C283.268 22.744 283.418 22.6453 283.588 22.56C283.188 22.336 282.874 22.04 282.644 21.672C282.42 21.2987 282.308 20.864 282.308 20.368C282.308 19.9733 282.383 19.616 282.532 19.296C282.687 18.9707 282.9 18.696 283.172 18.472C283.444 18.2427 283.767 18.0667 284.14 17.944C284.519 17.8213 284.932 17.76 285.38 17.76ZM287.908 26.44C287.908 26.2373 287.852 26.0747 287.74 25.952C287.628 25.8293 287.476 25.736 287.284 25.672C287.092 25.6027 286.871 25.552 286.62 25.52C286.37 25.488 286.106 25.4667 285.828 25.456C285.551 25.44 285.268 25.424 284.98 25.408C284.692 25.392 284.418 25.3627 284.156 25.32C283.852 25.464 283.604 25.64 283.412 25.848C283.226 26.056 283.132 26.304 283.132 26.592C283.132 26.7733 283.178 26.9413 283.268 27.096C283.364 27.256 283.508 27.392 283.7 27.504C283.892 27.6213 284.132 27.712 284.42 27.776C284.714 27.8453 285.058 27.88 285.452 27.88C285.836 27.88 286.18 27.8453 286.484 27.776C286.788 27.7067 287.044 27.608 287.252 27.48C287.466 27.352 287.628 27.2 287.74 27.024C287.852 26.848 287.908 26.6533 287.908 26.44ZM285.38 22.04C285.668 22.04 285.922 22 286.14 21.92C286.364 21.84 286.551 21.728 286.7 21.584C286.85 21.44 286.962 21.2693 287.036 21.072C287.111 20.8693 287.148 20.648 287.148 20.408C287.148 19.912 286.996 19.5173 286.692 19.224C286.394 18.9307 285.956 18.784 285.38 18.784C284.81 18.784 284.372 18.9307 284.068 19.224C283.77 19.5173 283.62 19.912 283.62 20.408C283.62 20.648 283.658 20.8693 283.732 21.072C283.812 21.2693 283.927 21.44 284.076 21.584C284.226 21.728 284.41 21.84 284.628 21.92C284.847 22 285.098 22.04 285.38 22.04ZM294.032 17.768C294.518 17.768 294.966 17.8507 295.376 18.016C295.787 18.176 296.142 18.4107 296.44 18.72C296.739 19.024 296.971 19.4027 297.136 19.856C297.307 20.304 297.392 20.816 297.392 21.392C297.392 21.616 297.368 21.7653 297.32 21.84C297.272 21.9147 297.182 21.952 297.048 21.952H291.656C291.667 22.464 291.736 22.9093 291.864 23.288C291.992 23.6667 292.168 23.984 292.392 24.24C292.616 24.4907 292.883 24.68 293.192 24.808C293.502 24.9307 293.848 24.992 294.232 24.992C294.59 24.992 294.896 24.952 295.152 24.872C295.414 24.7867 295.638 24.696 295.824 24.6C296.011 24.504 296.166 24.416 296.288 24.336C296.416 24.2507 296.526 24.208 296.616 24.208C296.734 24.208 296.824 24.2533 296.888 24.344L297.288 24.864C297.112 25.0773 296.902 25.264 296.656 25.424C296.411 25.5787 296.147 25.7067 295.864 25.808C295.587 25.9093 295.299 25.984 295 26.032C294.702 26.0853 294.406 26.112 294.112 26.112C293.552 26.112 293.035 26.0187 292.56 25.832C292.091 25.64 291.683 25.3627 291.336 25C290.995 24.632 290.728 24.1787 290.536 23.64C290.344 23.1013 290.248 22.4827 290.248 21.784C290.248 21.2187 290.334 20.6907 290.504 20.2C290.68 19.7093 290.931 19.2853 291.256 18.928C291.582 18.5653 291.979 18.2827 292.448 18.08C292.918 17.872 293.446 17.768 294.032 17.768ZM294.064 18.816C293.376 18.816 292.835 19.016 292.44 19.416C292.046 19.8107 291.8 20.36 291.704 21.064H296.112C296.112 20.7333 296.067 20.432 295.976 20.16C295.886 19.8827 295.752 19.6453 295.576 19.448C295.4 19.2453 295.184 19.0907 294.928 18.984C294.678 18.872 294.39 18.816 294.064 18.816ZM303.855 19.232C303.791 19.3493 303.692 19.408 303.559 19.408C303.479 19.408 303.388 19.3787 303.287 19.32C303.186 19.2613 303.06 19.1973 302.911 19.128C302.767 19.0533 302.594 18.9867 302.391 18.928C302.188 18.864 301.948 18.832 301.671 18.832C301.431 18.832 301.215 18.864 301.023 18.928C300.831 18.9867 300.666 19.0693 300.527 19.176C300.394 19.2827 300.29 19.408 300.215 19.552C300.146 19.6907 300.111 19.8427 300.111 20.008C300.111 20.216 300.17 20.3893 300.287 20.528C300.41 20.6667 300.57 20.7867 300.767 20.888C300.964 20.9893 301.188 21.08 301.439 21.16C301.69 21.2347 301.946 21.3173 302.207 21.408C302.474 21.4933 302.732 21.5893 302.983 21.696C303.234 21.8027 303.458 21.936 303.655 22.096C303.852 22.256 304.01 22.4533 304.127 22.688C304.25 22.9173 304.311 23.1947 304.311 23.52C304.311 23.8933 304.244 24.24 304.111 24.56C303.978 24.8747 303.78 25.1493 303.519 25.384C303.258 25.6133 302.938 25.7947 302.559 25.928C302.18 26.0613 301.743 26.128 301.247 26.128C300.682 26.128 300.17 26.0373 299.711 25.856C299.252 25.6693 298.863 25.432 298.543 25.144L298.879 24.6C298.922 24.5307 298.972 24.4773 299.031 24.44C299.09 24.4027 299.167 24.384 299.263 24.384C299.359 24.384 299.46 24.4213 299.567 24.496C299.674 24.5707 299.802 24.6533 299.951 24.744C300.106 24.8347 300.29 24.9173 300.503 24.992C300.722 25.0667 300.994 25.104 301.319 25.104C301.596 25.104 301.839 25.0693 302.047 25C302.255 24.9253 302.428 24.8267 302.567 24.704C302.706 24.5813 302.807 24.44 302.871 24.28C302.94 24.12 302.975 23.9493 302.975 23.768C302.975 23.544 302.914 23.36 302.791 23.216C302.674 23.0667 302.516 22.9413 302.319 22.84C302.122 22.7333 301.895 22.6427 301.639 22.568C301.388 22.488 301.13 22.4053 300.863 22.32C300.602 22.2347 300.343 22.1387 300.087 22.032C299.836 21.92 299.612 21.7813 299.415 21.616C299.218 21.4507 299.058 21.248 298.935 21.008C298.818 20.7627 298.759 20.4667 298.759 20.12C298.759 19.8107 298.823 19.5147 298.951 19.232C299.079 18.944 299.266 18.6933 299.511 18.48C299.756 18.2613 300.058 18.088 300.415 17.96C300.772 17.832 301.18 17.768 301.639 17.768C302.172 17.768 302.65 17.8533 303.071 18.024C303.498 18.1893 303.866 18.4187 304.175 18.712L303.855 19.232Z" fill="#0D0E43"/>
<path d="M343.096 21.712V26H341.552V14.536H344.936C345.661 14.536 346.291 14.6213 346.824 14.792C347.363 14.9573 347.808 15.1947 348.16 15.504C348.512 15.8133 348.773 16.1867 348.944 16.624C349.12 17.0613 349.208 17.5493 349.208 18.088C349.208 18.6213 349.115 19.1093 348.928 19.552C348.741 19.9947 348.467 20.376 348.104 20.696C347.747 21.016 347.301 21.2667 346.768 21.448C346.235 21.624 345.624 21.712 344.936 21.712H343.096ZM343.096 20.48H344.936C345.379 20.48 345.768 20.4213 346.104 20.304C346.445 20.1867 346.731 20.024 346.96 19.816C347.189 19.6027 347.363 19.3493 347.48 19.056C347.597 18.7627 347.656 18.44 347.656 18.088C347.656 17.3573 347.429 16.7867 346.976 16.376C346.528 15.9653 345.848 15.76 344.936 15.76H343.096V20.48ZM350.949 26V17.896H351.765C351.92 17.896 352.027 17.9253 352.085 17.984C352.144 18.0427 352.184 18.144 352.205 18.288L352.301 19.552C352.579 18.9867 352.92 18.5467 353.325 18.232C353.736 17.912 354.216 17.752 354.765 17.752C354.989 17.752 355.192 17.7787 355.373 17.832C355.555 17.88 355.723 17.9493 355.877 18.04L355.693 19.104C355.656 19.2373 355.573 19.304 355.445 19.304C355.371 19.304 355.256 19.28 355.101 19.232C354.947 19.1787 354.731 19.152 354.453 19.152C353.957 19.152 353.541 19.296 353.205 19.584C352.875 19.872 352.597 20.2907 352.373 20.84V26H350.949ZM360.682 17.768C361.274 17.768 361.808 17.8667 362.282 18.064C362.762 18.2613 363.168 18.5413 363.498 18.904C363.834 19.2667 364.09 19.7067 364.266 20.224C364.448 20.736 364.538 21.3093 364.538 21.944C364.538 22.584 364.448 23.16 364.266 23.672C364.09 24.184 363.834 24.6213 363.498 24.984C363.168 25.3467 362.762 25.6267 362.282 25.824C361.808 26.016 361.274 26.112 360.682 26.112C360.09 26.112 359.554 26.016 359.074 25.824C358.6 25.6267 358.194 25.3467 357.858 24.984C357.522 24.6213 357.264 24.184 357.082 23.672C356.901 23.16 356.81 22.584 356.81 21.944C356.81 21.3093 356.901 20.736 357.082 20.224C357.264 19.7067 357.522 19.2667 357.858 18.904C358.194 18.5413 358.6 18.2613 359.074 18.064C359.554 17.8667 360.09 17.768 360.682 17.768ZM360.682 25C361.482 25 362.08 24.7333 362.474 24.2C362.869 23.6613 363.066 22.912 363.066 21.952C363.066 20.9867 362.869 20.2347 362.474 19.696C362.08 19.1573 361.482 18.888 360.682 18.888C360.277 18.888 359.925 18.9573 359.626 19.096C359.328 19.2347 359.077 19.4347 358.874 19.696C358.677 19.9573 358.528 20.28 358.426 20.664C358.33 21.0427 358.282 21.472 358.282 21.952C358.282 22.432 358.33 22.8613 358.426 23.24C358.528 23.6187 358.677 23.9387 358.874 24.2C359.077 24.456 359.328 24.6533 359.626 24.792C359.925 24.9307 360.277 25 360.682 25ZM371.997 26C371.794 26 371.666 25.9013 371.613 25.704L371.485 24.72C371.138 25.1413 370.741 25.48 370.293 25.736C369.85 25.9867 369.341 26.112 368.765 26.112C368.301 26.112 367.88 26.024 367.501 25.848C367.122 25.6667 366.8 25.4027 366.533 25.056C366.266 24.7093 366.061 24.2773 365.917 23.76C365.773 23.2427 365.701 22.648 365.701 21.976C365.701 21.3787 365.781 20.824 365.941 20.312C366.101 19.7947 366.33 19.3467 366.629 18.968C366.933 18.5893 367.301 18.2933 367.733 18.08C368.165 17.8613 368.656 17.752 369.205 17.752C369.701 17.752 370.125 17.8373 370.477 18.008C370.829 18.1733 371.144 18.408 371.421 18.712V14.216H372.845V26H371.997ZM369.237 24.96C369.701 24.96 370.106 24.8533 370.453 24.64C370.805 24.4267 371.128 24.1253 371.421 23.736V19.816C371.16 19.464 370.872 19.2187 370.557 19.08C370.248 18.936 369.904 18.864 369.525 18.864C368.768 18.864 368.186 19.1333 367.781 19.672C367.376 20.2107 367.173 20.9787 367.173 21.976C367.173 22.504 367.218 22.9573 367.309 23.336C367.4 23.7093 367.533 24.0187 367.709 24.264C367.885 24.504 368.101 24.68 368.357 24.792C368.613 24.904 368.906 24.96 369.237 24.96ZM376.463 17.896V23.064C376.463 23.6773 376.604 24.152 376.887 24.488C377.169 24.824 377.596 24.992 378.167 24.992C378.583 24.992 378.975 24.8933 379.343 24.696C379.711 24.4987 380.049 24.224 380.359 23.872V17.896H381.783V26H380.935C380.732 26 380.604 25.9013 380.551 25.704L380.439 24.832C380.087 25.2213 379.692 25.536 379.255 25.776C378.817 26.0107 378.316 26.128 377.751 26.128C377.308 26.128 376.916 26.056 376.575 25.912C376.239 25.7627 375.956 25.5547 375.727 25.288C375.497 25.0213 375.324 24.6987 375.207 24.32C375.095 23.9413 375.039 23.5227 375.039 23.064V17.896H376.463ZM389.649 19.336C389.606 19.3947 389.564 19.44 389.521 19.472C389.478 19.504 389.417 19.52 389.337 19.52C389.257 19.52 389.169 19.488 389.073 19.424C388.982 19.3547 388.865 19.28 388.721 19.2C388.577 19.12 388.401 19.048 388.193 18.984C387.99 18.9147 387.74 18.88 387.441 18.88C387.046 18.88 386.697 18.952 386.393 19.096C386.089 19.2347 385.833 19.4373 385.625 19.704C385.422 19.9707 385.268 20.2933 385.161 20.672C385.06 21.0507 385.009 21.4747 385.009 21.944C385.009 22.4347 385.065 22.872 385.177 23.256C385.289 23.6347 385.446 23.9547 385.649 24.216C385.852 24.472 386.097 24.6693 386.385 24.808C386.678 24.9413 387.006 25.008 387.369 25.008C387.716 25.008 388.001 24.968 388.225 24.888C388.449 24.8027 388.636 24.7093 388.785 24.608C388.934 24.5067 389.057 24.416 389.153 24.336C389.249 24.2507 389.345 24.208 389.441 24.208C389.564 24.208 389.654 24.2533 389.713 24.344L390.113 24.864C389.761 25.296 389.321 25.6133 388.793 25.816C388.265 26.0133 387.708 26.112 387.121 26.112C386.614 26.112 386.142 26.0187 385.705 25.832C385.273 25.6453 384.897 25.376 384.577 25.024C384.257 24.6667 384.004 24.2293 383.817 23.712C383.636 23.1947 383.545 22.6053 383.545 21.944C383.545 21.3413 383.628 20.784 383.793 20.272C383.964 19.76 384.209 19.32 384.529 18.952C384.854 18.5787 385.254 18.288 385.729 18.08C386.204 17.872 386.748 17.768 387.361 17.768C387.926 17.768 388.428 17.8613 388.865 18.048C389.302 18.2293 389.689 18.488 390.025 18.824L389.649 19.336ZM394.046 26.128C393.406 26.128 392.913 25.9493 392.566 25.592C392.225 25.2347 392.054 24.72 392.054 24.048V19.088H391.078C390.993 19.088 390.921 19.064 390.862 19.016C390.803 18.9627 390.774 18.8827 390.774 18.776V18.208L392.102 18.04L392.43 15.536C392.441 15.456 392.475 15.392 392.534 15.344C392.593 15.2907 392.667 15.264 392.758 15.264H393.478V18.056H395.798V19.088H393.478V23.952C393.478 24.2933 393.561 24.5467 393.726 24.712C393.891 24.8773 394.105 24.96 394.366 24.96C394.515 24.96 394.643 24.9413 394.75 24.904C394.862 24.8613 394.958 24.816 395.038 24.768C395.118 24.72 395.185 24.6773 395.238 24.64C395.297 24.5973 395.347 24.576 395.39 24.576C395.465 24.576 395.531 24.6213 395.59 24.712L396.006 25.392C395.761 25.6213 395.465 25.8027 395.118 25.936C394.771 26.064 394.414 26.128 394.046 26.128ZM402.199 19.232C402.135 19.3493 402.036 19.408 401.903 19.408C401.823 19.408 401.732 19.3787 401.631 19.32C401.529 19.2613 401.404 19.1973 401.255 19.128C401.111 19.0533 400.937 18.9867 400.735 18.928C400.532 18.864 400.292 18.832 400.015 18.832C399.775 18.832 399.559 18.864 399.367 18.928C399.175 18.9867 399.009 19.0693 398.871 19.176C398.737 19.2827 398.633 19.408 398.559 19.552C398.489 19.6907 398.455 19.8427 398.455 20.008C398.455 20.216 398.513 20.3893 398.631 20.528C398.753 20.6667 398.913 20.7867 399.111 20.888C399.308 20.9893 399.532 21.08 399.783 21.16C400.033 21.2347 400.289 21.3173 400.551 21.408C400.817 21.4933 401.076 21.5893 401.327 21.696C401.577 21.8027 401.801 21.936 401.999 22.096C402.196 22.256 402.353 22.4533 402.471 22.688C402.593 22.9173 402.655 23.1947 402.655 23.52C402.655 23.8933 402.588 24.24 402.455 24.56C402.321 24.8747 402.124 25.1493 401.863 25.384C401.601 25.6133 401.281 25.7947 400.903 25.928C400.524 26.0613 400.087 26.128 399.591 26.128C399.025 26.128 398.513 26.0373 398.055 25.856C397.596 25.6693 397.207 25.432 396.887 25.144L397.223 24.6C397.265 24.5307 397.316 24.4773 397.375 24.44C397.433 24.4027 397.511 24.384 397.607 24.384C397.703 24.384 397.804 24.4213 397.911 24.496C398.017 24.5707 398.145 24.6533 398.295 24.744C398.449 24.8347 398.633 24.9173 398.847 24.992C399.065 25.0667 399.337 25.104 399.663 25.104C399.94 25.104 400.183 25.0693 400.391 25C400.599 24.9253 400.772 24.8267 400.911 24.704C401.049 24.5813 401.151 24.44 401.215 24.28C401.284 24.12 401.319 23.9493 401.319 23.768C401.319 23.544 401.257 23.36 401.135 23.216C401.017 23.0667 400.86 22.9413 400.663 22.84C400.465 22.7333 400.239 22.6427 399.983 22.568C399.732 22.488 399.473 22.4053 399.207 22.32C398.945 22.2347 398.687 22.1387 398.431 22.032C398.18 21.92 397.956 21.7813 397.759 21.616C397.561 21.4507 397.401 21.248 397.279 21.008C397.161 20.7627 397.103 20.4667 397.103 20.12C397.103 19.8107 397.167 19.5147 397.295 19.232C397.423 18.944 397.609 18.6933 397.855 18.48C398.1 18.2613 398.401 18.088 398.759 17.96C399.116 17.832 399.524 17.768 399.983 17.768C400.516 17.768 400.993 17.8533 401.415 18.024C401.841 18.1893 402.209 18.4187 402.519 18.712L402.199 19.232Z" fill="#0D0E43"/>
<path d="M440.392 26V14.536H444.048C444.752 14.536 445.357 14.6053 445.864 14.744C446.376 14.8827 446.795 15.08 447.12 15.336C447.451 15.592 447.693 15.9067 447.848 16.28C448.008 16.648 448.088 17.064 448.088 17.528C448.088 17.8107 448.043 18.0827 447.952 18.344C447.867 18.6053 447.733 18.848 447.552 19.072C447.376 19.296 447.152 19.496 446.88 19.672C446.613 19.848 446.299 19.992 445.936 20.104C446.773 20.2693 447.405 20.5707 447.832 21.008C448.259 21.4453 448.472 22.0213 448.472 22.736C448.472 23.2213 448.381 23.664 448.2 24.064C448.024 24.464 447.763 24.808 447.416 25.096C447.075 25.384 446.653 25.608 446.152 25.768C445.656 25.9227 445.088 26 444.448 26H440.392ZM441.944 20.776V24.768H444.424C444.867 24.768 445.245 24.7173 445.56 24.616C445.88 24.5147 446.141 24.3733 446.344 24.192C446.552 24.0053 446.704 23.7867 446.8 23.536C446.896 23.28 446.944 23 446.944 22.696C446.944 22.104 446.733 21.6373 446.312 21.296C445.896 20.9493 445.264 20.776 444.416 20.776H441.944ZM441.944 19.672H443.992C444.429 19.672 444.808 19.624 445.128 19.528C445.448 19.432 445.712 19.2987 445.92 19.128C446.133 18.9573 446.291 18.752 446.392 18.512C446.493 18.2667 446.544 18 446.544 17.712C446.544 17.04 446.341 16.5467 445.936 16.232C445.531 15.9173 444.901 15.76 444.048 15.76H441.944V19.672ZM452.111 14.216V26H450.687V14.216H452.111ZM457.901 17.768C458.493 17.768 459.026 17.8667 459.501 18.064C459.981 18.2613 460.386 18.5413 460.717 18.904C461.053 19.2667 461.309 19.7067 461.485 20.224C461.666 20.736 461.757 21.3093 461.757 21.944C461.757 22.584 461.666 23.16 461.485 23.672C461.309 24.184 461.053 24.6213 460.717 24.984C460.386 25.3467 459.981 25.6267 459.501 25.824C459.026 26.016 458.493 26.112 457.901 26.112C457.309 26.112 456.773 26.016 456.293 25.824C455.818 25.6267 455.413 25.3467 455.077 24.984C454.741 24.6213 454.482 24.184 454.301 23.672C454.12 23.16 454.029 22.584 454.029 21.944C454.029 21.3093 454.12 20.736 454.301 20.224C454.482 19.7067 454.741 19.2667 455.077 18.904C455.413 18.5413 455.818 18.2613 456.293 18.064C456.773 17.8667 457.309 17.768 457.901 17.768ZM457.901 25C458.701 25 459.298 24.7333 459.693 24.2C460.088 23.6613 460.285 22.912 460.285 21.952C460.285 20.9867 460.088 20.2347 459.693 19.696C459.298 19.1573 458.701 18.888 457.901 18.888C457.496 18.888 457.144 18.9573 456.845 19.096C456.546 19.2347 456.296 19.4347 456.093 19.696C455.896 19.9573 455.746 20.28 455.645 20.664C455.549 21.0427 455.501 21.472 455.501 21.952C455.501 22.432 455.549 22.8613 455.645 23.24C455.746 23.6187 455.896 23.9387 456.093 24.2C456.296 24.456 456.546 24.6533 456.845 24.792C457.144 24.9307 457.496 25 457.901 25ZM466.24 17.76C466.592 17.76 466.92 17.8 467.224 17.88C467.533 17.9547 467.813 18.0667 468.064 18.216H470.264V18.744C470.264 18.92 470.152 19.032 469.928 19.08L469.008 19.208C469.189 19.5547 469.28 19.9413 469.28 20.368C469.28 20.7627 469.202 21.1227 469.048 21.448C468.898 21.768 468.688 22.0427 468.416 22.272C468.149 22.5013 467.829 22.6773 467.456 22.8C467.088 22.9227 466.682 22.984 466.24 22.984C465.861 22.984 465.504 22.9387 465.168 22.848C464.997 22.9547 464.866 23.0693 464.776 23.192C464.69 23.3147 464.648 23.4347 464.648 23.552C464.648 23.744 464.725 23.8907 464.88 23.992C465.034 24.088 465.24 24.1573 465.496 24.2C465.752 24.2427 466.042 24.2693 466.368 24.28C466.693 24.2907 467.024 24.3093 467.36 24.336C467.701 24.3573 468.034 24.3973 468.36 24.456C468.685 24.5147 468.976 24.6107 469.232 24.744C469.488 24.8773 469.693 25.0613 469.848 25.296C470.002 25.5307 470.08 25.8347 470.08 26.208C470.08 26.5547 469.992 26.8907 469.816 27.216C469.645 27.5413 469.397 27.8293 469.072 28.08C468.746 28.336 468.349 28.5387 467.88 28.688C467.41 28.8427 466.88 28.92 466.288 28.92C465.696 28.92 465.176 28.8613 464.728 28.744C464.285 28.6267 463.917 28.4693 463.624 28.272C463.33 28.0747 463.109 27.8453 462.96 27.584C462.816 27.328 462.744 27.0587 462.744 26.776C462.744 26.376 462.869 26.0373 463.12 25.76C463.376 25.4773 463.725 25.2533 464.168 25.088C463.938 24.9813 463.754 24.84 463.616 24.664C463.482 24.4827 463.416 24.2427 463.416 23.944C463.416 23.8267 463.437 23.7067 463.48 23.584C463.522 23.456 463.586 23.3307 463.672 23.208C463.762 23.0853 463.872 22.968 464 22.856C464.128 22.744 464.277 22.6453 464.448 22.56C464.048 22.336 463.733 22.04 463.504 21.672C463.28 21.2987 463.168 20.864 463.168 20.368C463.168 19.9733 463.242 19.616 463.392 19.296C463.546 18.9707 463.76 18.696 464.032 18.472C464.304 18.2427 464.626 18.0667 465 17.944C465.378 17.8213 465.792 17.76 466.24 17.76ZM468.768 26.44C468.768 26.2373 468.712 26.0747 468.6 25.952C468.488 25.8293 468.336 25.736 468.144 25.672C467.952 25.6027 467.73 25.552 467.48 25.52C467.229 25.488 466.965 25.4667 466.688 25.456C466.41 25.44 466.128 25.424 465.84 25.408C465.552 25.392 465.277 25.3627 465.016 25.32C464.712 25.464 464.464 25.64 464.272 25.848C464.085 26.056 463.992 26.304 463.992 26.592C463.992 26.7733 464.037 26.9413 464.128 27.096C464.224 27.256 464.368 27.392 464.56 27.504C464.752 27.6213 464.992 27.712 465.28 27.776C465.573 27.8453 465.917 27.88 466.312 27.88C466.696 27.88 467.04 27.8453 467.344 27.776C467.648 27.7067 467.904 27.608 468.112 27.48C468.325 27.352 468.488 27.2 468.6 27.024C468.712 26.848 468.768 26.6533 468.768 26.44ZM466.24 22.04C466.528 22.04 466.781 22 467 21.92C467.224 21.84 467.41 21.728 467.56 21.584C467.709 21.44 467.821 21.2693 467.896 21.072C467.97 20.8693 468.008 20.648 468.008 20.408C468.008 19.912 467.856 19.5173 467.552 19.224C467.253 18.9307 466.816 18.784 466.24 18.784C465.669 18.784 465.232 18.9307 464.928 19.224C464.629 19.5173 464.48 19.912 464.48 20.408C464.48 20.648 464.517 20.8693 464.592 21.072C464.672 21.2693 464.786 21.44 464.936 21.584C465.085 21.728 465.269 21.84 465.488 21.92C465.706 22 465.957 22.04 466.24 22.04Z" fill="#0D0E43"/>
<path d="M513.264 16.328C513.216 16.408 513.165 16.4693 513.112 16.512C513.059 16.5493 512.989 16.568 512.904 16.568C512.813 16.568 512.707 16.5227 512.584 16.432C512.467 16.3413 512.315 16.2427 512.128 16.136C511.947 16.024 511.725 15.9227 511.464 15.832C511.208 15.7413 510.896 15.696 510.528 15.696C510.181 15.696 509.875 15.744 509.608 15.84C509.341 15.9307 509.117 16.056 508.936 16.216C508.76 16.376 508.627 16.5653 508.536 16.784C508.445 16.9973 508.4 17.2293 508.4 17.48C508.4 17.8 508.477 18.0667 508.632 18.28C508.792 18.488 509 18.6667 509.256 18.816C509.517 18.9653 509.811 19.096 510.136 19.208C510.467 19.3147 510.803 19.4267 511.144 19.544C511.491 19.6613 511.827 19.7947 512.152 19.944C512.483 20.088 512.776 20.272 513.032 20.496C513.293 20.72 513.501 20.9947 513.656 21.32C513.816 21.6453 513.896 22.0453 513.896 22.52C513.896 23.0213 513.811 23.4933 513.64 23.936C513.469 24.3733 513.219 24.7547 512.888 25.08C512.563 25.4053 512.16 25.6613 511.68 25.848C511.205 26.0347 510.664 26.128 510.056 26.128C509.315 26.128 508.637 25.9947 508.024 25.728C507.416 25.456 506.896 25.0907 506.464 24.632L506.912 23.896C506.955 23.8373 507.005 23.7893 507.064 23.752C507.128 23.7093 507.197 23.688 507.272 23.688C507.384 23.688 507.512 23.7493 507.656 23.872C507.8 23.9893 507.979 24.12 508.192 24.264C508.411 24.408 508.672 24.5413 508.976 24.664C509.285 24.7813 509.661 24.84 510.104 24.84C510.472 24.84 510.8 24.7893 511.088 24.688C511.376 24.5867 511.619 24.4453 511.816 24.264C512.019 24.0773 512.173 23.856 512.28 23.6C512.387 23.344 512.44 23.0587 512.44 22.744C512.44 22.3973 512.36 22.1147 512.2 21.896C512.045 21.672 511.84 21.4853 511.584 21.336C511.328 21.1867 511.035 21.0613 510.704 20.96C510.379 20.8533 510.043 20.7467 509.696 20.64C509.355 20.528 509.019 20.4 508.688 20.256C508.363 20.112 508.072 19.9253 507.816 19.696C507.56 19.4667 507.352 19.1813 507.192 18.84C507.037 18.4933 506.96 18.0667 506.96 17.56C506.96 17.1547 507.037 16.7627 507.192 16.384C507.352 16.0053 507.581 15.6693 507.88 15.376C508.179 15.0827 508.547 14.848 508.984 14.672C509.427 14.496 509.933 14.408 510.504 14.408C511.144 14.408 511.728 14.5093 512.256 14.712C512.784 14.9147 513.245 15.208 513.64 15.592L513.264 16.328ZM515.652 26V14.216H517.076V18.984C517.423 18.616 517.807 18.3227 518.228 18.104C518.65 17.88 519.135 17.768 519.684 17.768C520.127 17.768 520.516 17.8427 520.852 17.992C521.194 18.136 521.476 18.344 521.7 18.616C521.93 18.8827 522.103 19.2053 522.22 19.584C522.338 19.9627 522.396 20.3813 522.396 20.84V26H520.972V20.84C520.972 20.2267 520.831 19.752 520.548 19.416C520.271 19.0747 519.844 18.904 519.268 18.904C518.847 18.904 518.452 19.0053 518.084 19.208C517.722 19.4107 517.386 19.6853 517.076 20.032V26H515.652ZM527.823 17.768C528.415 17.768 528.948 17.8667 529.423 18.064C529.903 18.2613 530.308 18.5413 530.639 18.904C530.975 19.2667 531.231 19.7067 531.407 20.224C531.588 20.736 531.679 21.3093 531.679 21.944C531.679 22.584 531.588 23.16 531.407 23.672C531.231 24.184 530.975 24.6213 530.639 24.984C530.308 25.3467 529.903 25.6267 529.423 25.824C528.948 26.016 528.415 26.112 527.823 26.112C527.231 26.112 526.695 26.016 526.215 25.824C525.74 25.6267 525.335 25.3467 524.999 24.984C524.663 24.6213 524.404 24.184 524.223 23.672C524.042 23.16 523.951 22.584 523.951 21.944C523.951 21.3093 524.042 20.736 524.223 20.224C524.404 19.7067 524.663 19.2667 524.999 18.904C525.335 18.5413 525.74 18.2613 526.215 18.064C526.695 17.8667 527.231 17.768 527.823 17.768ZM527.823 25C528.623 25 529.22 24.7333 529.615 24.2C530.01 23.6613 530.207 22.912 530.207 21.952C530.207 20.9867 530.01 20.2347 529.615 19.696C529.22 19.1573 528.623 18.888 527.823 18.888C527.418 18.888 527.066 18.9573 526.767 19.096C526.468 19.2347 526.218 19.4347 526.015 19.696C525.818 19.9573 525.668 20.28 525.567 20.664C525.471 21.0427 525.423 21.472 525.423 21.952C525.423 22.432 525.471 22.8613 525.567 23.24C525.668 23.6187 525.818 23.9387 526.015 24.2C526.218 24.456 526.468 24.6533 526.767 24.792C527.066 24.9307 527.418 25 527.823 25ZM533.434 28.744V17.896H534.282C534.484 17.896 534.612 17.9947 534.666 18.192L534.786 19.152C535.132 18.7307 535.527 18.392 535.97 18.136C536.418 17.88 536.932 17.752 537.514 17.752C537.978 17.752 538.399 17.8427 538.778 18.024C539.156 18.2 539.479 18.464 539.746 18.816C540.012 19.1627 540.218 19.5947 540.362 20.112C540.506 20.6293 540.578 21.224 540.578 21.896C540.578 22.4933 540.498 23.0507 540.338 23.568C540.178 24.08 539.948 24.5253 539.65 24.904C539.351 25.2773 538.983 25.5733 538.546 25.792C538.114 26.0053 537.626 26.112 537.082 26.112C536.58 26.112 536.151 26.0293 535.794 25.864C535.442 25.6987 535.13 25.464 534.858 25.16V28.744H533.434ZM537.042 18.904C536.578 18.904 536.17 19.0107 535.818 19.224C535.471 19.4373 535.151 19.7387 534.858 20.128V24.048C535.119 24.4 535.404 24.648 535.714 24.792C536.028 24.936 536.378 25.008 536.762 25.008C537.514 25.008 538.092 24.7387 538.498 24.2C538.903 23.6613 539.106 22.8933 539.106 21.896C539.106 21.368 539.058 20.9147 538.962 20.536C538.871 20.1573 538.738 19.848 538.562 19.608C538.386 19.3627 538.17 19.184 537.914 19.072C537.658 18.96 537.367 18.904 537.042 18.904Z" fill="#0D0E43"/>
<path d="M586.472 23.632C586.557 23.632 586.635 23.6667 586.704 23.736L587.312 24.4C586.843 24.944 586.272 25.368 585.6 25.672C584.933 25.976 584.128 26.128 583.184 26.128C582.357 26.128 581.608 25.9867 580.936 25.704C580.264 25.416 579.691 25.016 579.216 24.504C578.741 23.9867 578.373 23.368 578.112 22.648C577.851 21.928 577.72 21.136 577.72 20.272C577.72 19.408 577.859 18.616 578.136 17.896C578.419 17.176 578.813 16.5573 579.32 16.04C579.827 15.5227 580.432 15.1227 581.136 14.84C581.845 14.552 582.627 14.408 583.48 14.408C584.323 14.408 585.048 14.5387 585.656 14.8C586.269 15.0613 586.813 15.416 587.288 15.864L586.784 16.576C586.747 16.6293 586.704 16.6747 586.656 16.712C586.608 16.744 586.539 16.76 586.448 16.76C586.379 16.76 586.304 16.736 586.224 16.688C586.149 16.6347 586.059 16.5707 585.952 16.496C585.845 16.4213 585.72 16.3413 585.576 16.256C585.432 16.1707 585.261 16.0907 585.064 16.016C584.867 15.9413 584.637 15.88 584.376 15.832C584.115 15.7787 583.813 15.752 583.472 15.752C582.859 15.752 582.296 15.8587 581.784 16.072C581.277 16.28 580.84 16.5787 580.472 16.968C580.104 17.3573 579.816 17.832 579.608 18.392C579.405 18.952 579.304 19.5787 579.304 20.272C579.304 20.9867 579.405 21.624 579.608 22.184C579.816 22.744 580.096 23.2187 580.448 23.608C580.805 23.992 581.227 24.2853 581.712 24.488C582.197 24.6907 582.72 24.792 583.28 24.792C583.621 24.792 583.928 24.7733 584.2 24.736C584.472 24.6933 584.723 24.6293 584.952 24.544C585.187 24.4587 585.403 24.352 585.6 24.224C585.803 24.0907 586.005 23.9333 586.208 23.752C586.299 23.672 586.387 23.632 586.472 23.632ZM592.401 17.768C592.993 17.768 593.526 17.8667 594.001 18.064C594.481 18.2613 594.886 18.5413 595.217 18.904C595.553 19.2667 595.809 19.7067 595.985 20.224C596.166 20.736 596.257 21.3093 596.257 21.944C596.257 22.584 596.166 23.16 595.985 23.672C595.809 24.184 595.553 24.6213 595.217 24.984C594.886 25.3467 594.481 25.6267 594.001 25.824C593.526 26.016 592.993 26.112 592.401 26.112C591.809 26.112 591.273 26.016 590.793 25.824C590.318 25.6267 589.913 25.3467 589.577 24.984C589.241 24.6213 588.982 24.184 588.801 23.672C588.62 23.16 588.529 22.584 588.529 21.944C588.529 21.3093 588.62 20.736 588.801 20.224C588.982 19.7067 589.241 19.2667 589.577 18.904C589.913 18.5413 590.318 18.2613 590.793 18.064C591.273 17.8667 591.809 17.768 592.401 17.768ZM592.401 25C593.201 25 593.798 24.7333 594.193 24.2C594.588 23.6613 594.785 22.912 594.785 21.952C594.785 20.9867 594.588 20.2347 594.193 19.696C593.798 19.1573 593.201 18.888 592.401 18.888C591.996 18.888 591.644 18.9573 591.345 19.096C591.046 19.2347 590.796 19.4347 590.593 19.696C590.396 19.9573 590.246 20.28 590.145 20.664C590.049 21.0427 590.001 21.472 590.001 21.952C590.001 22.432 590.049 22.8613 590.145 23.24C590.246 23.6187 590.396 23.9387 590.593 24.2C590.796 24.456 591.046 24.6533 591.345 24.792C591.644 24.9307 591.996 25 592.401 25ZM598.012 26V17.896H598.86C599.062 17.896 599.19 17.9947 599.244 18.192L599.356 19.072C599.708 18.6827 600.1 18.368 600.532 18.128C600.969 17.888 601.473 17.768 602.044 17.768C602.486 17.768 602.876 17.8427 603.212 17.992C603.553 18.136 603.836 18.344 604.06 18.616C604.289 18.8827 604.462 19.2053 604.58 19.584C604.697 19.9627 604.756 20.3813 604.756 20.84V26H603.332V20.84C603.332 20.2267 603.19 19.752 602.908 19.416C602.63 19.0747 602.204 18.904 601.628 18.904C601.206 18.904 600.812 19.0053 600.444 19.208C600.081 19.4107 599.745 19.6853 599.436 20.032V26H598.012ZM609.358 26.128C608.718 26.128 608.225 25.9493 607.878 25.592C607.537 25.2347 607.366 24.72 607.366 24.048V19.088H606.39C606.305 19.088 606.233 19.064 606.174 19.016C606.116 18.9627 606.086 18.8827 606.086 18.776V18.208L607.414 18.04L607.742 15.536C607.753 15.456 607.788 15.392 607.846 15.344C607.905 15.2907 607.98 15.264 608.07 15.264H608.79V18.056H611.11V19.088H608.79V23.952C608.79 24.2933 608.873 24.5467 609.038 24.712C609.204 24.8773 609.417 24.96 609.678 24.96C609.828 24.96 609.956 24.9413 610.062 24.904C610.174 24.8613 610.27 24.816 610.35 24.768C610.43 24.72 610.497 24.6773 610.55 24.64C610.609 24.5973 610.66 24.576 610.702 24.576C610.777 24.576 610.844 24.6213 610.902 24.712L611.318 25.392C611.073 25.6213 610.777 25.8027 610.43 25.936C610.084 26.064 609.726 26.128 609.358 26.128ZM618.823 26H618.191C618.052 26 617.94 25.9787 617.855 25.936C617.77 25.8933 617.714 25.8027 617.687 25.664L617.527 24.912C617.314 25.104 617.106 25.2773 616.903 25.432C616.7 25.5813 616.487 25.7093 616.263 25.816C616.039 25.9173 615.799 25.9947 615.543 26.048C615.292 26.1013 615.012 26.128 614.703 26.128C614.388 26.128 614.092 26.0853 613.815 26C613.543 25.9093 613.306 25.776 613.103 25.6C612.9 25.424 612.738 25.2027 612.615 24.936C612.498 24.664 612.439 24.344 612.439 23.976C612.439 23.656 612.527 23.3493 612.703 23.056C612.879 22.7573 613.162 22.4933 613.551 22.264C613.946 22.0347 614.46 21.848 615.095 21.704C615.73 21.5547 616.506 21.4693 617.423 21.448V20.816C617.423 20.1867 617.287 19.712 617.015 19.392C616.748 19.0667 616.351 18.904 615.823 18.904C615.476 18.904 615.183 18.9493 614.943 19.04C614.708 19.1253 614.503 19.224 614.327 19.336C614.156 19.4427 614.007 19.5413 613.879 19.632C613.756 19.7173 613.634 19.76 613.511 19.76C613.415 19.76 613.33 19.736 613.255 19.688C613.186 19.6347 613.13 19.5707 613.087 19.496L612.831 19.04C613.279 18.608 613.762 18.2853 614.279 18.072C614.796 17.8587 615.37 17.752 615.999 17.752C616.452 17.752 616.855 17.8267 617.207 17.976C617.559 18.1253 617.855 18.3333 618.095 18.6C618.335 18.8667 618.516 19.1893 618.639 19.568C618.762 19.9467 618.823 20.3627 618.823 20.816V26ZM615.127 25.128C615.378 25.128 615.607 25.104 615.815 25.056C616.023 25.0027 616.218 24.9307 616.399 24.84C616.586 24.744 616.762 24.6293 616.927 24.496C617.098 24.3627 617.263 24.2107 617.423 24.04V22.352C616.767 22.3733 616.21 22.4267 615.751 22.512C615.292 22.592 614.919 22.6987 614.631 22.832C614.343 22.9653 614.132 23.1227 613.999 23.304C613.871 23.4853 613.807 23.688 613.807 23.912C613.807 24.1253 613.842 24.3093 613.911 24.464C613.98 24.6187 614.074 24.7467 614.191 24.848C614.308 24.944 614.447 25.016 614.607 25.064C614.767 25.1067 614.94 25.128 615.127 25.128ZM626.509 19.336C626.466 19.3947 626.423 19.44 626.381 19.472C626.338 19.504 626.277 19.52 626.197 19.52C626.117 19.52 626.029 19.488 625.933 19.424C625.842 19.3547 625.725 19.28 625.581 19.2C625.437 19.12 625.261 19.048 625.053 18.984C624.85 18.9147 624.599 18.88 624.301 18.88C623.906 18.88 623.557 18.952 623.253 19.096C622.949 19.2347 622.693 19.4373 622.485 19.704C622.282 19.9707 622.127 20.2933 622.021 20.672C621.919 21.0507 621.868 21.4747 621.868 21.944C621.868 22.4347 621.925 22.872 622.037 23.256C622.149 23.6347 622.306 23.9547 622.509 24.216C622.711 24.472 622.957 24.6693 623.245 24.808C623.538 24.9413 623.866 25.008 624.229 25.008C624.575 25.008 624.861 24.968 625.085 24.888C625.309 24.8027 625.495 24.7093 625.645 24.608C625.794 24.5067 625.917 24.416 626.013 24.336C626.109 24.2507 626.205 24.208 626.301 24.208C626.423 24.208 626.514 24.2533 626.573 24.344L626.973 24.864C626.621 25.296 626.181 25.6133 625.653 25.816C625.125 26.0133 624.567 26.112 623.981 26.112C623.474 26.112 623.002 26.0187 622.565 25.832C622.133 25.6453 621.757 25.376 621.437 25.024C621.117 24.6667 620.863 24.2293 620.677 23.712C620.495 23.1947 620.405 22.6053 620.405 21.944C620.405 21.3413 620.487 20.784 620.653 20.272C620.823 19.76 621.069 19.32 621.389 18.952C621.714 18.5787 622.114 18.288 622.589 18.08C623.063 17.872 623.607 17.768 624.22 17.768C624.786 17.768 625.287 17.8613 625.725 18.048C626.162 18.2293 626.549 18.488 626.885 18.824L626.509 19.336ZM630.905 26.128C630.265 26.128 629.772 25.9493 629.425 25.592C629.084 25.2347 628.913 24.72 628.913 24.048V19.088H627.937C627.852 19.088 627.78 19.064 627.721 19.016C627.663 18.9627 627.633 18.8827 627.633 18.776V18.208L628.961 18.04L629.289 15.536C629.3 15.456 629.335 15.392 629.393 15.344C629.452 15.2907 629.527 15.264 629.617 15.264H630.337V18.056H632.657V19.088H630.337V23.952C630.337 24.2933 630.42 24.5467 630.585 24.712C630.751 24.8773 630.964 24.96 631.225 24.96C631.375 24.96 631.503 24.9413 631.609 24.904C631.721 24.8613 631.817 24.816 631.897 24.768C631.977 24.72 632.044 24.6773 632.097 24.64C632.156 24.5973 632.207 24.576 632.249 24.576C632.324 24.576 632.391 24.6213 632.449 24.712L632.865 25.392C632.62 25.6213 632.324 25.8027 631.977 25.936C631.631 26.064 631.273 26.128 630.905 26.128Z" fill="#0D0E43"/>
<rect x="861" y="1" width="315" height="38" stroke="#E7E6EF" stroke-width="2"/>
<rect x="1126" width="51" height="40" fill="#FB2E86"/>
<path d="M24.276 3.976V29H19.346V18.834H8.16V29H3.23V3.976H8.16V14.074H19.346V3.976H24.276ZM37.2502 29.408C35.4369 29.408 33.8955 29.068 32.6262 28.388C31.3795 27.708 30.4275 26.7673 29.7702 25.566C29.1129 24.3647 28.7842 22.982 28.7842 21.418C28.7842 19.922 29.1695 18.5733 29.9402 17.372C30.7109 16.1707 31.7422 15.2187 33.0342 14.516C34.3262 13.7907 35.7655 13.428 37.3522 13.428C39.4829 13.428 41.2282 14.0513 42.5882 15.298C43.9709 16.522 44.8662 18.3013 45.2742 20.636L33.7142 24.308L32.6602 21.724L41.0242 18.902L40.0382 19.344C39.8569 18.7547 39.5282 18.2447 39.0522 17.814C38.5989 17.3607 37.9075 17.134 36.9782 17.134C36.2755 17.134 35.6522 17.304 35.1082 17.644C34.5869 17.9613 34.1789 18.426 33.8842 19.038C33.6122 19.6273 33.4762 20.33 33.4762 21.146C33.4762 22.0753 33.6462 22.8573 33.9862 23.492C34.3262 24.104 34.7909 24.5687 35.3802 24.886C35.9695 25.2033 36.6269 25.362 37.3522 25.362C37.8735 25.362 38.3722 25.2713 38.8482 25.09C39.3469 24.9087 39.8342 24.6707 40.3102 24.376L42.4182 27.912C41.6249 28.3653 40.7635 28.728 39.8342 29C38.9275 29.272 38.0662 29.408 37.2502 29.408ZM48.7332 29V2.174H53.4932V29H48.7332ZM57.2672 18.902L63.9992 29H58.4572L54.1392 21.622L57.2672 18.902ZM52.0652 24.886L51.5892 20.364L60.5652 13.768L63.4552 16.318L52.0652 24.886ZM68.6877 7.614H73.4477V14.074H77.0517V17.78H73.4477V29H68.6877V17.78H66.3757V14.074H68.6877V7.614ZM79.5186 21.384C79.5186 19.8653 79.8699 18.5053 80.5726 17.304C81.2979 16.1027 82.3066 15.162 83.5986 14.482C84.8906 13.7793 86.3752 13.428 88.0526 13.428C89.7526 13.428 91.2259 13.7793 92.4726 14.482C93.7192 15.162 94.6712 16.1027 95.3286 17.304C96.0086 18.5053 96.3486 19.8653 96.3486 21.384C96.3486 22.9027 96.0086 24.274 95.3286 25.498C94.6712 26.6993 93.7192 27.6513 92.4726 28.354C91.2259 29.0567 89.7299 29.408 87.9846 29.408C86.3526 29.408 84.8906 29.0907 83.5986 28.456C82.3292 27.8213 81.3319 26.9033 80.6066 25.702C79.8812 24.5007 79.5186 23.0613 79.5186 21.384ZM84.3126 21.418C84.3126 22.1887 84.4712 22.8913 84.7886 23.526C85.1059 24.138 85.5366 24.6253 86.0806 24.988C86.6246 25.3507 87.2366 25.532 87.9166 25.532C88.6646 25.532 89.3106 25.3507 89.8546 24.988C90.3986 24.6253 90.8179 24.138 91.1126 23.526C91.4072 22.8913 91.5546 22.1887 91.5546 21.418C91.5546 20.6247 91.4072 19.922 91.1126 19.31C90.8179 18.698 90.3986 18.2107 89.8546 17.848C89.3106 17.4853 88.6646 17.304 87.9166 17.304C87.2366 17.304 86.6246 17.4853 86.0806 17.848C85.5366 18.2107 85.1059 18.698 84.7886 19.31C84.4712 19.922 84.3126 20.6247 84.3126 21.418Z" fill="#0D0E43"/>
<path d="M196.688 26H195.128V20.784H188.952V26H187.392V14.536H188.952V19.648H195.128V14.536H196.688V26ZM202.542 17.768C203.134 17.768 203.667 17.8667 204.142 18.064C204.622 18.2613 205.027 18.5413 205.358 18.904C205.694 19.2667 205.95 19.7067 206.126 20.224C206.307 20.736 206.398 21.3093 206.398 21.944C206.398 22.584 206.307 23.16 206.126 23.672C205.95 24.184 205.694 24.6213 205.358 24.984C205.027 25.3467 204.622 25.6267 204.142 25.824C203.667 26.016 203.134 26.112 202.542 26.112C201.95 26.112 201.414 26.016 200.934 25.824C200.459 25.6267 200.054 25.3467 199.718 24.984C199.382 24.6213 199.123 24.184 198.942 23.672C198.76 23.16 198.67 22.584 198.67 21.944C198.67 21.3093 198.76 20.736 198.942 20.224C199.123 19.7067 199.382 19.2667 199.718 18.904C200.054 18.5413 200.459 18.2613 200.934 18.064C201.414 17.8667 201.95 17.768 202.542 17.768ZM202.542 25C203.342 25 203.939 24.7333 204.334 24.2C204.728 23.6613 204.926 22.912 204.926 21.952C204.926 20.9867 204.728 20.2347 204.334 19.696C203.939 19.1573 203.342 18.888 202.542 18.888C202.136 18.888 201.784 18.9573 201.486 19.096C201.187 19.2347 200.936 19.4347 200.734 19.696C200.536 19.9573 200.387 20.28 200.286 20.664C200.19 21.0427 200.142 21.472 200.142 21.952C200.142 22.432 200.19 22.8613 200.286 23.24C200.387 23.6187 200.536 23.9387 200.734 24.2C200.936 24.456 201.187 24.6533 201.486 24.792C201.784 24.9307 202.136 25 202.542 25ZM208.152 26V17.896H209C209.203 17.896 209.331 17.9947 209.384 18.192L209.488 19.024C209.787 18.656 210.12 18.3547 210.488 18.12C210.862 17.8853 211.294 17.768 211.784 17.768C212.334 17.768 212.776 17.92 213.112 18.224C213.454 18.528 213.699 18.9387 213.848 19.456C213.96 19.1627 214.107 18.9093 214.288 18.696C214.475 18.4827 214.683 18.3067 214.912 18.168C215.142 18.0293 215.384 17.928 215.64 17.864C215.902 17.8 216.166 17.768 216.432 17.768C216.859 17.768 217.238 17.8373 217.568 17.976C217.904 18.1093 218.187 18.3067 218.416 18.568C218.651 18.8293 218.83 19.152 218.952 19.536C219.075 19.9147 219.136 20.3493 219.136 20.84V26H217.712V20.84C217.712 20.2053 217.574 19.7253 217.296 19.4C217.019 19.0693 216.616 18.904 216.088 18.904C215.854 18.904 215.63 18.9467 215.416 19.032C215.208 19.112 215.024 19.232 214.864 19.392C214.704 19.552 214.576 19.7547 214.48 20C214.39 20.24 214.344 20.52 214.344 20.84V26H212.92V20.84C212.92 20.1893 212.79 19.704 212.528 19.384C212.267 19.064 211.886 18.904 211.384 18.904C211.032 18.904 210.704 19 210.4 19.192C210.102 19.3787 209.827 19.6347 209.576 19.96V26H208.152ZM224.501 17.768C224.986 17.768 225.434 17.8507 225.845 18.016C226.256 18.176 226.61 18.4107 226.909 18.72C227.208 19.024 227.44 19.4027 227.605 19.856C227.776 20.304 227.861 20.816 227.861 21.392C227.861 21.616 227.837 21.7653 227.789 21.84C227.741 21.9147 227.65 21.952 227.517 21.952H222.125C222.136 22.464 222.205 22.9093 222.333 23.288C222.461 23.6667 222.637 23.984 222.861 24.24C223.085 24.4907 223.352 24.68 223.661 24.808C223.97 24.9307 224.317 24.992 224.701 24.992C225.058 24.992 225.365 24.952 225.621 24.872C225.882 24.7867 226.106 24.696 226.293 24.6C226.48 24.504 226.634 24.416 226.757 24.336C226.885 24.2507 226.994 24.208 227.085 24.208C227.202 24.208 227.293 24.2533 227.357 24.344L227.757 24.864C227.581 25.0773 227.37 25.264 227.125 25.424C226.88 25.5787 226.616 25.7067 226.333 25.808C226.056 25.9093 225.768 25.984 225.469 26.032C225.17 26.0853 224.874 26.112 224.581 26.112C224.021 26.112 223.504 26.0187 223.029 25.832C222.56 25.64 222.152 25.3627 221.805 25C221.464 24.632 221.197 24.1787 221.005 23.64C220.813 23.1013 220.717 22.4827 220.717 21.784C220.717 21.2187 220.802 20.6907 220.973 20.2C221.149 19.7093 221.4 19.2853 221.725 18.928C222.05 18.5653 222.448 18.2827 222.917 18.08C223.386 17.872 223.914 17.768 224.501 17.768ZM224.533 18.816C223.845 18.816 223.304 19.016 222.909 19.416C222.514 19.8107 222.269 20.36 222.173 21.064H226.581C226.581 20.7333 226.536 20.432 226.445 20.16C226.354 19.8827 226.221 19.6453 226.045 19.448C225.869 19.2453 225.653 19.0907 225.397 18.984C225.146 18.872 224.858 18.816 224.533 18.816Z" fill="#FB2E86"/>
<path d="M233 18.5L237 22.5L241 18.5" stroke="#FB2E86" stroke-linecap="round" stroke-linejoin="round"/>
<path d="M1161.71 28.2899L1158 24.6099C1159.44 22.8143 1160.14 20.5352 1159.95 18.2412C1159.76 15.9472 1158.7 13.8127 1156.99 12.2765C1155.27 10.7404 1153.03 9.91941 1150.73 9.98237C1148.43 10.0453 1146.24 10.9875 1144.62 12.615C1142.99 14.2426 1142.05 16.4319 1141.98 18.7328C1141.92 21.0337 1142.74 23.2713 1144.28 24.9854C1145.81 26.6996 1147.95 27.76 1150.24 27.9487C1152.54 28.1374 1154.81 27.44 1156.61 25.9999L1160.29 29.6799C1160.38 29.7736 1160.49 29.848 1160.62 29.8988C1160.74 29.9496 1160.87 29.9757 1161 29.9757C1161.13 29.9757 1161.26 29.9496 1161.38 29.8988C1161.51 29.848 1161.62 29.7736 1161.71 29.6799C1161.89 29.4934 1161.99 29.2442 1161.99 28.9849C1161.99 28.7256 1161.89 28.4764 1161.71 28.2899ZM1151 25.9999C1149.62 25.9999 1148.26 25.5894 1147.11 24.8202C1145.96 24.051 1145.06 22.9578 1144.53 21.6787C1144 20.3996 1143.86 18.9921 1144.13 17.6343C1144.4 16.2764 1145.07 15.0291 1146.05 14.0502C1147.03 13.0712 1148.28 12.4045 1149.63 12.1344C1150.99 11.8643 1152.4 12.0029 1153.68 12.5327C1154.96 13.0626 1156.05 13.9598 1156.82 15.1109C1157.59 16.2621 1158 17.6154 1158 18.9999C1158 20.8564 1157.26 22.6369 1155.95 23.9497C1154.64 25.2624 1152.86 25.9999 1151 25.9999Z" fill="url(#paint0_linear_79_1399)"/>
<defs>
<linearGradient id="paint0_linear_79_1399" x1="1141.98" y1="9.979" x2="1165.43" y2="24.376" gradientUnits="userSpaceOnUse">
<stop stop-color="#F3F9FF"/>
<stop offset="1" stop-color="#F1F0FF"/>
</linearGradient>
</defs>
</svg>
