<svg width="228" height="64" viewBox="0 0 228 64" fill="none" xmlns="http://www.w3.org/2000/svg">
<path d="M6.504 17.872C6.81333 17.872 7.096 17.8587 7.352 17.832C7.61333 17.8 7.85867 17.7547 8.088 17.696C8.31733 17.6373 8.53333 17.568 8.736 17.488C8.93867 17.4027 9.14133 17.3067 9.344 17.2V14.672H7.568C7.46667 14.672 7.384 14.6427 7.32 14.584C7.26133 14.5253 7.232 14.4533 7.232 14.368V13.488H10.752V17.888C10.464 18.096 10.1627 18.2773 9.848 18.432C9.53867 18.5867 9.20533 18.7173 8.848 18.824C8.496 18.9253 8.11733 19 7.712 19.048C7.30667 19.1013 6.86667 19.128 6.392 19.128C5.56 19.128 4.79733 18.9867 4.104 18.704C3.41067 18.416 2.81333 18.016 2.312 17.504C1.81067 16.9867 1.41867 16.368 1.136 15.648C0.858667 14.928 0.72 14.136 0.72 13.272C0.72 12.3973 0.856 11.6 1.128 10.88C1.40533 10.16 1.79733 9.544 2.304 9.032C2.816 8.51467 3.432 8.11467 4.152 7.832C4.87733 7.54933 5.688 7.408 6.584 7.408C7.03733 7.408 7.45867 7.44267 7.848 7.512C8.23733 7.576 8.59733 7.672 8.928 7.8C9.264 7.92267 9.57333 8.07467 9.856 8.256C10.1387 8.432 10.4027 8.632 10.648 8.856L10.208 9.56C10.1173 9.704 10 9.776 9.856 9.776C9.77067 9.776 9.67733 9.74667 9.576 9.688C9.44267 9.61333 9.29333 9.52267 9.128 9.416C8.96267 9.30933 8.76 9.208 8.52 9.112C8.28533 9.01067 8.00533 8.92533 7.68 8.856C7.36 8.78667 6.97867 8.752 6.536 8.752C5.89067 8.752 5.30667 8.85867 4.784 9.072C4.26133 9.28 3.816 9.58133 3.448 9.976C3.08 10.3653 2.79733 10.84 2.6 11.4C2.40267 11.9547 2.304 12.5787 2.304 13.272C2.304 13.9973 2.40533 14.6453 2.608 15.216C2.816 15.7813 3.10667 16.2613 3.48 16.656C3.85333 17.0507 4.296 17.352 4.808 17.56C5.32 17.768 5.88533 17.872 6.504 17.872ZM16.126 10.768C16.6113 10.768 17.0593 10.8507 17.47 11.016C17.8807 11.176 18.2353 11.4107 18.534 11.72C18.8327 12.024 19.0647 12.4027 19.23 12.856C19.4007 13.304 19.486 13.816 19.486 14.392C19.486 14.616 19.462 14.7653 19.414 14.84C19.366 14.9147 19.2753 14.952 19.142 14.952H13.75C13.7607 15.464 13.83 15.9093 13.958 16.288C14.086 16.6667 14.262 16.984 14.486 17.24C14.71 17.4907 14.9767 17.68 15.286 17.808C15.5953 17.9307 15.942 17.992 16.326 17.992C16.6833 17.992 16.99 17.952 17.246 17.872C17.5073 17.7867 17.7313 17.696 17.918 17.6C18.1047 17.504 18.2593 17.416 18.382 17.336C18.51 17.2507 18.6193 17.208 18.71 17.208C18.8273 17.208 18.918 17.2533 18.982 17.344L19.382 17.864C19.206 18.0773 18.9953 18.264 18.75 18.424C18.5047 18.5787 18.2407 18.7067 17.958 18.808C17.6807 18.9093 17.3927 18.984 17.094 19.032C16.7953 19.0853 16.4993 19.112 16.206 19.112C15.646 19.112 15.1287 19.0187 14.654 18.832C14.1847 18.64 13.7767 18.3627 13.43 18C13.0887 17.632 12.822 17.1787 12.63 16.64C12.438 16.1013 12.342 15.4827 12.342 14.784C12.342 14.2187 12.4273 13.6907 12.598 13.2C12.774 12.7093 13.0247 12.2853 13.35 11.928C13.6753 11.5653 14.0727 11.2827 14.542 11.08C15.0113 10.872 15.5393 10.768 16.126 10.768ZM16.158 11.816C15.47 11.816 14.9287 12.016 14.534 12.416C14.1393 12.8107 13.894 13.36 13.798 14.064H18.206C18.206 13.7333 18.1607 13.432 18.07 13.16C17.9793 12.8827 17.846 12.6453 17.67 12.448C17.494 12.2453 17.278 12.0907 17.022 11.984C16.7713 11.872 16.4833 11.816 16.158 11.816ZM21.3086 19V10.896H22.1566C22.3593 10.896 22.4873 10.9947 22.5406 11.192L22.6526 12.072C23.0046 11.6827 23.3966 11.368 23.8286 11.128C24.266 10.888 24.77 10.768 25.3406 10.768C25.7833 10.768 26.1726 10.8427 26.5086 10.992C26.85 11.136 27.1326 11.344 27.3566 11.616C27.586 11.8827 27.7593 12.2053 27.8766 12.584C27.994 12.9627 28.0526 13.3813 28.0526 13.84V19H26.6286V13.84C26.6286 13.2267 26.4873 12.752 26.2046 12.416C25.9273 12.0747 25.5006 11.904 24.9246 11.904C24.5033 11.904 24.1086 12.0053 23.7406 12.208C23.378 12.4107 23.042 12.6853 22.7326 13.032V19H21.3086ZM33.4073 10.768C33.8926 10.768 34.3406 10.8507 34.7513 11.016C35.1619 11.176 35.5166 11.4107 35.8153 11.72C36.1139 12.024 36.3459 12.4027 36.5113 12.856C36.6819 13.304 36.7673 13.816 36.7673 14.392C36.7673 14.616 36.7433 14.7653 36.6953 14.84C36.6473 14.9147 36.5566 14.952 36.4233 14.952H31.0312C31.0419 15.464 31.1113 15.9093 31.2393 16.288C31.3673 16.6667 31.5433 16.984 31.7673 17.24C31.9913 17.4907 32.2579 17.68 32.5673 17.808C32.8766 17.9307 33.2233 17.992 33.6073 17.992C33.9646 17.992 34.2713 17.952 34.5273 17.872C34.7886 17.7867 35.0126 17.696 35.1993 17.6C35.3859 17.504 35.5406 17.416 35.6633 17.336C35.7913 17.2507 35.9006 17.208 35.9913 17.208C36.1086 17.208 36.1993 17.2533 36.2633 17.344L36.6633 17.864C36.4873 18.0773 36.2766 18.264 36.0313 18.424C35.7859 18.5787 35.5219 18.7067 35.2393 18.808C34.9619 18.9093 34.6739 18.984 34.3753 19.032C34.0766 19.0853 33.7806 19.112 33.4873 19.112C32.9273 19.112 32.4099 19.0187 31.9353 18.832C31.4659 18.64 31.0579 18.3627 30.7113 18C30.3699 17.632 30.1033 17.1787 29.9113 16.64C29.7193 16.1013 29.6233 15.4827 29.6233 14.784C29.6233 14.2187 29.7086 13.6907 29.8793 13.2C30.0553 12.7093 30.3059 12.2853 30.6313 11.928C30.9566 11.5653 31.3539 11.2827 31.8233 11.08C32.2926 10.872 32.8206 10.768 33.4073 10.768ZM33.4392 11.816C32.7513 11.816 32.2099 12.016 31.8153 12.416C31.4206 12.8107 31.1753 13.36 31.0793 14.064H35.4873C35.4873 13.7333 35.4419 13.432 35.3513 13.16C35.2606 12.8827 35.1273 12.6453 34.9513 12.448C34.7753 12.2453 34.5593 12.0907 34.3033 11.984C34.0526 11.872 33.7646 11.816 33.4392 11.816ZM38.5899 19V10.896H39.4059C39.5605 10.896 39.6672 10.9253 39.7259 10.984C39.7845 11.0427 39.8245 11.144 39.8459 11.288L39.9419 12.552C40.2192 11.9867 40.5605 11.5467 40.9659 11.232C41.3765 10.912 41.8565 10.752 42.4059 10.752C42.6299 10.752 42.8325 10.7787 43.0139 10.832C43.1952 10.88 43.3632 10.9493 43.5179 11.04L43.3339 12.104C43.2965 12.2373 43.2139 12.304 43.0859 12.304C43.0112 12.304 42.8965 12.28 42.7419 12.232C42.5872 12.1787 42.3712 12.152 42.0939 12.152C41.5979 12.152 41.1819 12.296 40.8459 12.584C40.5152 12.872 40.2379 13.2907 40.0139 13.84V19H38.5899ZM50.6981 19H50.0661C49.9275 19 49.8155 18.9787 49.7301 18.936C49.6448 18.8933 49.5888 18.8027 49.5621 18.664L49.4021 17.912C49.1888 18.104 48.9808 18.2773 48.7781 18.432C48.5755 18.5813 48.3621 18.7093 48.1381 18.816C47.9141 18.9173 47.6741 18.9947 47.4181 19.048C47.1675 19.1013 46.8875 19.128 46.5781 19.128C46.2635 19.128 45.9675 19.0853 45.6901 19C45.4181 18.9093 45.1808 18.776 44.9781 18.6C44.7755 18.424 44.6128 18.2027 44.4901 17.936C44.3728 17.664 44.3141 17.344 44.3141 16.976C44.3141 16.656 44.4021 16.3493 44.5781 16.056C44.7541 15.7573 45.0368 15.4933 45.4261 15.264C45.8208 15.0347 46.3355 14.848 46.9701 14.704C47.6048 14.5547 48.3808 14.4693 49.2981 14.448V13.816C49.2981 13.1867 49.1621 12.712 48.8901 12.392C48.6235 12.0667 48.2261 11.904 47.6981 11.904C47.3515 11.904 47.0581 11.9493 46.8181 12.04C46.5835 12.1253 46.3781 12.224 46.2021 12.336C46.0315 12.4427 45.8821 12.5413 45.7541 12.632C45.6315 12.7173 45.5088 12.76 45.3861 12.76C45.2901 12.76 45.2048 12.736 45.1301 12.688C45.0608 12.6347 45.0048 12.5707 44.9621 12.496L44.7061 12.04C45.1541 11.608 45.6368 11.2853 46.1541 11.072C46.6715 10.8587 47.2448 10.752 47.8741 10.752C48.3275 10.752 48.7301 10.8267 49.0821 10.976C49.4341 11.1253 49.7301 11.3333 49.9701 11.6C50.2101 11.8667 50.3915 12.1893 50.5141 12.568C50.6368 12.9467 50.6981 13.3627 50.6981 13.816V19ZM47.0021 18.128C47.2528 18.128 47.4821 18.104 47.6901 18.056C47.8981 18.0027 48.0928 17.9307 48.2741 17.84C48.4608 17.744 48.6368 17.6293 48.8021 17.496C48.9728 17.3627 49.1381 17.2107 49.2981 17.04V15.352C48.6421 15.3733 48.0848 15.4267 47.6261 15.512C47.1675 15.592 46.7941 15.6987 46.5061 15.832C46.2181 15.9653 46.0075 16.1227 45.8741 16.304C45.7461 16.4853 45.6821 16.688 45.6821 16.912C45.6821 17.1253 45.7168 17.3093 45.7861 17.464C45.8555 17.6187 45.9488 17.7467 46.0661 17.848C46.1835 17.944 46.3221 18.016 46.4821 18.064C46.6421 18.1067 46.8155 18.128 47.0021 18.128ZM54.4395 7.216V19H53.0155V7.216H54.4395Z" fill="#151875"/>
<path d="M0 20.6H55.7835V21.56H0V20.6Z" fill="#151875"/>
<path d="M104.192 45.536C104.331 45.536 104.432 45.5547 104.496 45.592C104.565 45.624 104.643 45.6933 104.728 45.8L111.368 54.44C111.352 54.3013 111.341 54.168 111.336 54.04C111.331 53.9067 111.328 53.7787 111.328 53.656V45.536H112.688V57H111.904C111.781 57 111.677 56.9787 111.592 56.936C111.512 56.8933 111.432 56.8213 111.352 56.72L104.72 48.088C104.731 48.2213 104.739 48.352 104.744 48.48C104.749 48.608 104.752 48.7253 104.752 48.832V57H103.392V45.536H104.192ZM116.494 48.896V54.064C116.494 54.6773 116.635 55.152 116.918 55.488C117.2 55.824 117.627 55.992 118.198 55.992C118.614 55.992 119.006 55.8933 119.374 55.696C119.742 55.4987 120.08 55.224 120.39 54.872V48.896H121.814V57H120.966C120.763 57 120.635 56.9013 120.582 56.704L120.47 55.832C120.118 56.2213 119.723 56.536 119.286 56.776C118.848 57.0107 118.347 57.128 117.782 57.128C117.339 57.128 116.947 57.056 116.606 56.912C116.27 56.7627 115.987 56.5547 115.758 56.288C115.528 56.0213 115.355 55.6987 115.238 55.32C115.126 54.9413 115.07 54.5227 115.07 54.064V48.896H116.494ZM125.736 45.216V57H124.312V45.216H125.736ZM129.83 45.216V57H128.406V45.216H129.83ZM138.292 57H137.66C137.521 57 137.409 56.9787 137.324 56.936C137.239 56.8933 137.183 56.8027 137.156 56.664L136.996 55.912C136.783 56.104 136.575 56.2773 136.372 56.432C136.169 56.5813 135.956 56.7093 135.732 56.816C135.508 56.9173 135.268 56.9947 135.012 57.048C134.761 57.1013 134.481 57.128 134.172 57.128C133.857 57.128 133.561 57.0853 133.284 57C133.012 56.9093 132.775 56.776 132.572 56.6C132.369 56.424 132.207 56.2027 132.084 55.936C131.967 55.664 131.908 55.344 131.908 54.976C131.908 54.656 131.996 54.3493 132.172 54.056C132.348 53.7573 132.631 53.4933 133.02 53.264C133.415 53.0347 133.929 52.848 134.564 52.704C135.199 52.5547 135.975 52.4693 136.892 52.448V51.816C136.892 51.1867 136.756 50.712 136.484 50.392C136.217 50.0667 135.82 49.904 135.292 49.904C134.945 49.904 134.652 49.9493 134.412 50.04C134.177 50.1253 133.972 50.224 133.796 50.336C133.625 50.4427 133.476 50.5413 133.348 50.632C133.225 50.7173 133.103 50.76 132.98 50.76C132.884 50.76 132.799 50.736 132.724 50.688C132.655 50.6347 132.599 50.5707 132.556 50.496L132.3 50.04C132.748 49.608 133.231 49.2853 133.748 49.072C134.265 48.8587 134.839 48.752 135.468 48.752C135.921 48.752 136.324 48.8267 136.676 48.976C137.028 49.1253 137.324 49.3333 137.564 49.6C137.804 49.8667 137.985 50.1893 138.108 50.568C138.231 50.9467 138.292 51.3627 138.292 51.816V57ZM134.596 56.128C134.847 56.128 135.076 56.104 135.284 56.056C135.492 56.0027 135.687 55.9307 135.868 55.84C136.055 55.744 136.231 55.6293 136.396 55.496C136.567 55.3627 136.732 55.2107 136.892 55.04V53.352C136.236 53.3733 135.679 53.4267 135.22 53.512C134.761 53.592 134.388 53.6987 134.1 53.832C133.812 53.9653 133.601 54.1227 133.468 54.304C133.34 54.4853 133.276 54.688 133.276 54.912C133.276 55.1253 133.311 55.3093 133.38 55.464C133.449 55.6187 133.543 55.7467 133.66 55.848C133.777 55.944 133.916 56.016 134.076 56.064C134.236 56.1067 134.409 56.128 134.596 56.128ZM139.985 56.12C139.985 55.9813 140.009 55.8507 140.057 55.728C140.111 55.6053 140.18 55.4987 140.265 55.408C140.356 55.3173 140.463 55.2453 140.585 55.192C140.708 55.1387 140.839 55.112 140.977 55.112C141.116 55.112 141.247 55.1387 141.369 55.192C141.492 55.2453 141.599 55.3173 141.689 55.408C141.78 55.4987 141.849 55.6053 141.897 55.728C141.951 55.8507 141.977 55.9813 141.977 56.12C141.977 56.264 141.951 56.3973 141.897 56.52C141.849 56.6373 141.78 56.7413 141.689 56.832C141.599 56.9227 141.492 56.992 141.369 57.04C141.247 57.0933 141.116 57.12 140.977 57.12C140.839 57.12 140.708 57.0933 140.585 57.04C140.463 56.992 140.356 56.9227 140.265 56.832C140.18 56.7413 140.111 56.6373 140.057 56.52C140.009 56.3973 139.985 56.264 139.985 56.12Z" fill="#151875"/>
<path d="M102 58.6H142.673V59.56H102V58.6Z" fill="#151875"/>
<path d="M2.392 57V45.536H6.048C6.752 45.536 7.35733 45.6053 7.864 45.744C8.376 45.8827 8.79467 46.08 9.12 46.336C9.45067 46.592 9.69333 46.9067 9.848 47.28C10.008 47.648 10.088 48.064 10.088 48.528C10.088 48.8107 10.0427 49.0827 9.952 49.344C9.86667 49.6053 9.73333 49.848 9.552 50.072C9.376 50.296 9.152 50.496 8.88 50.672C8.61333 50.848 8.29867 50.992 7.936 51.104C8.77333 51.2693 9.40533 51.5707 9.832 52.008C10.2587 52.4453 10.472 53.0213 10.472 53.736C10.472 54.2213 10.3813 54.664 10.2 55.064C10.024 55.464 9.76267 55.808 9.416 56.096C9.07467 56.384 8.65333 56.608 8.152 56.768C7.656 56.9227 7.088 57 6.448 57H2.392ZM3.944 51.776V55.768H6.424C6.86667 55.768 7.24533 55.7173 7.56 55.616C7.88 55.5147 8.14133 55.3733 8.344 55.192C8.552 55.0053 8.704 54.7867 8.8 54.536C8.896 54.28 8.944 54 8.944 53.696C8.944 53.104 8.73333 52.6373 8.312 52.296C7.896 51.9493 7.264 51.776 6.416 51.776H3.944ZM3.944 50.672H5.992C6.42933 50.672 6.808 50.624 7.128 50.528C7.448 50.432 7.712 50.2987 7.92 50.128C8.13333 49.9573 8.29067 49.752 8.392 49.512C8.49333 49.2667 8.544 49 8.544 48.712C8.544 48.04 8.34133 47.5467 7.936 47.232C7.53067 46.9173 6.90133 46.76 6.048 46.76H3.944V50.672ZM14.1114 48.896V57H12.6874V48.896H14.1114ZM14.4314 46.352C14.4314 46.4907 14.402 46.6213 14.3434 46.744C14.29 46.8613 14.2154 46.968 14.1194 47.064C14.0287 47.1547 13.922 47.2267 13.7994 47.28C13.6767 47.3333 13.546 47.36 13.4074 47.36C13.2687 47.36 13.138 47.3333 13.0154 47.28C12.898 47.2267 12.7914 47.1547 12.6954 47.064C12.6047 46.968 12.5327 46.8613 12.4794 46.744C12.426 46.6213 12.3994 46.4907 12.3994 46.352C12.3994 46.2133 12.426 46.0827 12.4794 45.96C12.5327 45.832 12.6047 45.7227 12.6954 45.632C12.7914 45.536 12.898 45.4613 13.0154 45.408C13.138 45.3547 13.2687 45.328 13.4074 45.328C13.546 45.328 13.6767 45.3547 13.7994 45.408C13.922 45.4613 14.0287 45.536 14.1194 45.632C14.2154 45.7227 14.29 45.832 14.3434 45.96C14.402 46.0827 14.4314 46.2133 14.4314 46.352ZM16.6691 57V45.216H18.1011V50.064C18.4371 49.6747 18.8211 49.3627 19.2531 49.128C19.6905 48.888 20.1891 48.768 20.7491 48.768C21.2185 48.768 21.6425 48.856 22.0211 49.032C22.3998 49.208 22.7225 49.472 22.9891 49.824C23.2558 50.1707 23.4611 50.6027 23.6051 51.12C23.7491 51.632 23.8211 52.224 23.8211 52.896C23.8211 53.4933 23.7411 54.0507 23.5811 54.568C23.4211 55.08 23.1891 55.5253 22.8851 55.904C22.5865 56.2773 22.2185 56.5733 21.7811 56.792C21.3491 57.0053 20.8611 57.112 20.3171 57.112C19.7945 57.112 19.3491 57.0107 18.9811 56.808C18.6185 56.6053 18.3011 56.3227 18.0291 55.96L17.9571 56.696C17.9145 56.8987 17.7918 57 17.5891 57H16.6691ZM20.2851 49.904C19.8211 49.904 19.4131 50.0107 19.0611 50.224C18.7145 50.4373 18.3945 50.7387 18.1011 51.128V55.048C18.3571 55.4 18.6398 55.648 18.9491 55.792C19.2638 55.936 19.6131 56.008 19.9971 56.008C20.7545 56.008 21.3358 55.7387 21.7411 55.2C22.1465 54.6613 22.3491 53.8933 22.3491 52.896C22.3491 52.368 22.3011 51.9147 22.2051 51.536C22.1145 51.1573 21.9811 50.848 21.8051 50.608C21.6291 50.3627 21.4131 50.184 21.1571 50.072C20.9011 49.96 20.6105 49.904 20.2851 49.904ZM30.1986 50.232C30.1346 50.3493 30.036 50.408 29.9026 50.408C29.8226 50.408 29.732 50.3787 29.6306 50.32C29.5293 50.2613 29.404 50.1973 29.2546 50.128C29.1106 50.0533 28.9373 49.9867 28.7346 49.928C28.532 49.864 28.292 49.832 28.0146 49.832C27.7746 49.832 27.5586 49.864 27.3666 49.928C27.1746 49.9867 27.0093 50.0693 26.8706 50.176C26.7373 50.2827 26.6333 50.408 26.5586 50.552C26.4893 50.6907 26.4546 50.8427 26.4546 51.008C26.4546 51.216 26.5133 51.3893 26.6306 51.528C26.7533 51.6667 26.9133 51.7867 27.1106 51.888C27.308 51.9893 27.532 52.08 27.7826 52.16C28.0333 52.2347 28.2893 52.3173 28.5506 52.408C28.8173 52.4933 29.076 52.5893 29.3266 52.696C29.5773 52.8027 29.8013 52.936 29.9986 53.096C30.196 53.256 30.3533 53.4533 30.4706 53.688C30.5933 53.9173 30.6546 54.1947 30.6546 54.52C30.6546 54.8933 30.588 55.24 30.4546 55.56C30.3213 55.8747 30.124 56.1493 29.8626 56.384C29.6013 56.6133 29.2813 56.7947 28.9026 56.928C28.524 57.0613 28.0866 57.128 27.5906 57.128C27.0253 57.128 26.5133 57.0373 26.0546 56.856C25.596 56.6693 25.2066 56.432 24.8866 56.144L25.2226 55.6C25.2653 55.5307 25.316 55.4773 25.3746 55.44C25.4333 55.4027 25.5106 55.384 25.6066 55.384C25.7026 55.384 25.804 55.4213 25.9106 55.496C26.0173 55.5707 26.1453 55.6533 26.2946 55.744C26.4493 55.8347 26.6333 55.9173 26.8466 55.992C27.0653 56.0667 27.3373 56.104 27.6626 56.104C27.94 56.104 28.1826 56.0693 28.3906 56C28.5986 55.9253 28.772 55.8267 28.9106 55.704C29.0493 55.5813 29.1506 55.44 29.2146 55.28C29.284 55.12 29.3186 54.9493 29.3186 54.768C29.3186 54.544 29.2573 54.36 29.1346 54.216C29.0173 54.0667 28.86 53.9413 28.6626 53.84C28.4653 53.7333 28.2386 53.6427 27.9826 53.568C27.732 53.488 27.4733 53.4053 27.2066 53.32C26.9453 53.2347 26.6866 53.1387 26.4306 53.032C26.18 52.92 25.956 52.7813 25.7586 52.616C25.5613 52.4507 25.4013 52.248 25.2786 52.008C25.1613 51.7627 25.1026 51.4667 25.1026 51.12C25.1026 50.8107 25.1666 50.5147 25.2946 50.232C25.4226 49.944 25.6093 49.6933 25.8546 49.48C26.1 49.2613 26.4013 49.088 26.7586 48.96C27.116 48.832 27.524 48.768 27.9826 48.768C28.516 48.768 28.9933 48.8533 29.4146 49.024C29.8413 49.1893 30.2093 49.4187 30.5186 49.712L30.1986 50.232ZM38.4481 57H37.8161C37.6775 57 37.5655 56.9787 37.4801 56.936C37.3948 56.8933 37.3388 56.8027 37.3121 56.664L37.1521 55.912C36.9388 56.104 36.7308 56.2773 36.5281 56.432C36.3255 56.5813 36.1121 56.7093 35.8881 56.816C35.6641 56.9173 35.4241 56.9947 35.1681 57.048C34.9175 57.1013 34.6375 57.128 34.3281 57.128C34.0135 57.128 33.7175 57.0853 33.4401 57C33.1681 56.9093 32.9308 56.776 32.7281 56.6C32.5255 56.424 32.3628 56.2027 32.2401 55.936C32.1228 55.664 32.0641 55.344 32.0641 54.976C32.0641 54.656 32.1521 54.3493 32.3281 54.056C32.5041 53.7573 32.7868 53.4933 33.1761 53.264C33.5708 53.0347 34.0855 52.848 34.7201 52.704C35.3548 52.5547 36.1308 52.4693 37.0481 52.448V51.816C37.0481 51.1867 36.9121 50.712 36.6401 50.392C36.3735 50.0667 35.9761 49.904 35.4481 49.904C35.1015 49.904 34.8081 49.9493 34.5681 50.04C34.3335 50.1253 34.1281 50.224 33.9521 50.336C33.7815 50.4427 33.6321 50.5413 33.5041 50.632C33.3815 50.7173 33.2588 50.76 33.1361 50.76C33.0401 50.76 32.9548 50.736 32.8801 50.688C32.8108 50.6347 32.7548 50.5707 32.7121 50.496L32.4561 50.04C32.9041 49.608 33.3868 49.2853 33.9041 49.072C34.4215 48.8587 34.9948 48.752 35.6241 48.752C36.0775 48.752 36.4801 48.8267 36.8321 48.976C37.1841 49.1253 37.4801 49.3333 37.7201 49.6C37.9601 49.8667 38.1415 50.1893 38.2641 50.568C38.3868 50.9467 38.4481 51.3627 38.4481 51.816V57ZM34.7521 56.128C35.0028 56.128 35.2321 56.104 35.4401 56.056C35.6481 56.0027 35.8428 55.9307 36.0241 55.84C36.2108 55.744 36.3868 55.6293 36.5521 55.496C36.7228 55.3627 36.8881 55.2107 37.0481 55.04V53.352C36.3921 53.3733 35.8348 53.4267 35.3761 53.512C34.9175 53.592 34.5441 53.6987 34.2561 53.832C33.9681 53.9653 33.7575 54.1227 33.6241 54.304C33.4961 54.4853 33.4321 54.688 33.4321 54.912C33.4321 55.1253 33.4668 55.3093 33.5361 55.464C33.6055 55.6187 33.6988 55.7467 33.8161 55.848C33.9335 55.944 34.0721 56.016 34.2321 56.064C34.3921 56.1067 34.5655 56.128 34.7521 56.128ZM46.5575 57H45.9255C45.7868 57 45.6748 56.9787 45.5895 56.936C45.5042 56.8933 45.4482 56.8027 45.4215 56.664L45.2615 55.912C45.0482 56.104 44.8402 56.2773 44.6375 56.432C44.4348 56.5813 44.2215 56.7093 43.9975 56.816C43.7735 56.9173 43.5335 56.9947 43.2775 57.048C43.0268 57.1013 42.7468 57.128 42.4375 57.128C42.1228 57.128 41.8268 57.0853 41.5495 57C41.2775 56.9093 41.0402 56.776 40.8375 56.6C40.6348 56.424 40.4722 56.2027 40.3495 55.936C40.2322 55.664 40.1735 55.344 40.1735 54.976C40.1735 54.656 40.2615 54.3493 40.4375 54.056C40.6135 53.7573 40.8962 53.4933 41.2855 53.264C41.6802 53.0347 42.1948 52.848 42.8295 52.704C43.4642 52.5547 44.2402 52.4693 45.1575 52.448V51.816C45.1575 51.1867 45.0215 50.712 44.7495 50.392C44.4828 50.0667 44.0855 49.904 43.5575 49.904C43.2108 49.904 42.9175 49.9493 42.6775 50.04C42.4428 50.1253 42.2375 50.224 42.0615 50.336C41.8908 50.4427 41.7415 50.5413 41.6135 50.632C41.4908 50.7173 41.3682 50.76 41.2455 50.76C41.1495 50.76 41.0642 50.736 40.9895 50.688C40.9202 50.6347 40.8642 50.5707 40.8215 50.496L40.5655 50.04C41.0135 49.608 41.4962 49.2853 42.0135 49.072C42.5308 48.8587 43.1042 48.752 43.7335 48.752C44.1868 48.752 44.5895 48.8267 44.9415 48.976C45.2935 49.1253 45.5895 49.3333 45.8295 49.6C46.0695 49.8667 46.2508 50.1893 46.3735 50.568C46.4962 50.9467 46.5575 51.3627 46.5575 51.816V57ZM42.8615 56.128C43.1122 56.128 43.3415 56.104 43.5495 56.056C43.7575 56.0027 43.9522 55.9307 44.1335 55.84C44.3202 55.744 44.4962 55.6293 44.6615 55.496C44.8322 55.3627 44.9975 55.2107 45.1575 55.04V53.352C44.5015 53.3733 43.9442 53.4267 43.4855 53.512C43.0268 53.592 42.6535 53.6987 42.3655 53.832C42.0775 53.9653 41.8668 54.1227 41.7335 54.304C41.6055 54.4853 41.5415 54.688 41.5415 54.912C41.5415 55.1253 41.5762 55.3093 41.6455 55.464C41.7148 55.6187 41.8082 55.7467 41.9255 55.848C42.0428 55.944 42.1815 56.016 42.3415 56.064C42.5015 56.1067 42.6748 56.128 42.8615 56.128ZM53.3549 50.232C53.2909 50.3493 53.1922 50.408 53.0589 50.408C52.9789 50.408 52.8882 50.3787 52.7869 50.32C52.6855 50.2613 52.5602 50.1973 52.4109 50.128C52.2669 50.0533 52.0935 49.9867 51.8909 49.928C51.6882 49.864 51.4482 49.832 51.1709 49.832C50.9309 49.832 50.7149 49.864 50.5229 49.928C50.3309 49.9867 50.1655 50.0693 50.0269 50.176C49.8935 50.2827 49.7895 50.408 49.7149 50.552C49.6455 50.6907 49.6109 50.8427 49.6109 51.008C49.6109 51.216 49.6695 51.3893 49.7869 51.528C49.9095 51.6667 50.0695 51.7867 50.2669 51.888C50.4642 51.9893 50.6882 52.08 50.9389 52.16C51.1895 52.2347 51.4455 52.3173 51.7069 52.408C51.9735 52.4933 52.2322 52.5893 52.4829 52.696C52.7335 52.8027 52.9575 52.936 53.1549 53.096C53.3522 53.256 53.5095 53.4533 53.6269 53.688C53.7495 53.9173 53.8109 54.1947 53.8109 54.52C53.8109 54.8933 53.7442 55.24 53.6109 55.56C53.4775 55.8747 53.2802 56.1493 53.0189 56.384C52.7575 56.6133 52.4375 56.7947 52.0589 56.928C51.6802 57.0613 51.2429 57.128 50.7469 57.128C50.1815 57.128 49.6695 57.0373 49.2109 56.856C48.7522 56.6693 48.3629 56.432 48.0429 56.144L48.3789 55.6C48.4215 55.5307 48.4722 55.4773 48.5309 55.44C48.5895 55.4027 48.6669 55.384 48.7629 55.384C48.8589 55.384 48.9602 55.4213 49.0669 55.496C49.1735 55.5707 49.3015 55.6533 49.4509 55.744C49.6055 55.8347 49.7895 55.9173 50.0029 55.992C50.2215 56.0667 50.4935 56.104 50.8189 56.104C51.0962 56.104 51.3389 56.0693 51.5469 56C51.7549 55.9253 51.9282 55.8267 52.0669 55.704C52.2055 55.5813 52.3069 55.44 52.3709 55.28C52.4402 55.12 52.4749 54.9493 52.4749 54.768C52.4749 54.544 52.4135 54.36 52.2909 54.216C52.1735 54.0667 52.0162 53.9413 51.8189 53.84C51.6215 53.7333 51.3949 53.6427 51.1389 53.568C50.8882 53.488 50.6295 53.4053 50.3629 53.32C50.1015 53.2347 49.8429 53.1387 49.5869 53.032C49.3362 52.92 49.1122 52.7813 48.9149 52.616C48.7175 52.4507 48.5575 52.248 48.4349 52.008C48.3175 51.7627 48.2589 51.4667 48.2589 51.12C48.2589 50.8107 48.3229 50.5147 48.4509 50.232C48.5789 49.944 48.7655 49.6933 49.0109 49.48C49.2562 49.2613 49.5575 49.088 49.9149 48.96C50.2722 48.832 50.6802 48.768 51.1389 48.768C51.6722 48.768 52.1495 48.8533 52.5709 49.024C52.9975 49.1893 53.3655 49.4187 53.6749 49.712L53.3549 50.232Z" fill="#151875"/>
<path d="M1 58.6H54.4909V59.56H1V58.6Z" fill="#151875"/>
<path d="M191.232 19H189.68V7.536H191.232V19ZM194.074 19V10.896H194.922C195.125 10.896 195.253 10.9947 195.306 11.192L195.418 12.072C195.77 11.6827 196.162 11.368 196.594 11.128C197.032 10.888 197.536 10.768 198.106 10.768C198.549 10.768 198.938 10.8427 199.274 10.992C199.616 11.136 199.898 11.344 200.122 11.616C200.352 11.8827 200.525 12.2053 200.642 12.584C200.76 12.9627 200.818 13.3813 200.818 13.84V19H199.394V13.84C199.394 13.2267 199.253 12.752 198.97 12.416C198.693 12.0747 198.266 11.904 197.69 11.904C197.269 11.904 196.874 12.0053 196.506 12.208C196.144 12.4107 195.808 12.6853 195.498 13.032V19H194.074ZM207.605 12.232C207.541 12.3493 207.442 12.408 207.309 12.408C207.229 12.408 207.138 12.3787 207.037 12.32C206.936 12.2613 206.81 12.1973 206.661 12.128C206.517 12.0533 206.344 11.9867 206.141 11.928C205.938 11.864 205.698 11.832 205.421 11.832C205.181 11.832 204.965 11.864 204.773 11.928C204.581 11.9867 204.416 12.0693 204.277 12.176C204.144 12.2827 204.04 12.408 203.965 12.552C203.896 12.6907 203.861 12.8427 203.861 13.008C203.861 13.216 203.92 13.3893 204.037 13.528C204.16 13.6667 204.32 13.7867 204.517 13.888C204.714 13.9893 204.938 14.08 205.189 14.16C205.44 14.2347 205.696 14.3173 205.957 14.408C206.224 14.4933 206.482 14.5893 206.733 14.696C206.984 14.8027 207.208 14.936 207.405 15.096C207.602 15.256 207.76 15.4533 207.877 15.688C208 15.9173 208.061 16.1947 208.061 16.52C208.061 16.8933 207.994 17.24 207.861 17.56C207.728 17.8747 207.53 18.1493 207.269 18.384C207.008 18.6133 206.688 18.7947 206.309 18.928C205.93 19.0613 205.493 19.128 204.997 19.128C204.432 19.128 203.92 19.0373 203.461 18.856C203.002 18.6693 202.613 18.432 202.293 18.144L202.629 17.6C202.672 17.5307 202.722 17.4773 202.781 17.44C202.84 17.4027 202.917 17.384 203.013 17.384C203.109 17.384 203.21 17.4213 203.317 17.496C203.424 17.5707 203.552 17.6533 203.701 17.744C203.856 17.8347 204.04 17.9173 204.253 17.992C204.472 18.0667 204.744 18.104 205.069 18.104C205.346 18.104 205.589 18.0693 205.797 18C206.005 17.9253 206.178 17.8267 206.317 17.704C206.456 17.5813 206.557 17.44 206.621 17.28C206.69 17.12 206.725 16.9493 206.725 16.768C206.725 16.544 206.664 16.36 206.541 16.216C206.424 16.0667 206.266 15.9413 206.069 15.84C205.872 15.7333 205.645 15.6427 205.389 15.568C205.138 15.488 204.88 15.4053 204.613 15.32C204.352 15.2347 204.093 15.1387 203.837 15.032C203.586 14.92 203.362 14.7813 203.165 14.616C202.968 14.4507 202.808 14.248 202.685 14.008C202.568 13.7627 202.509 13.4667 202.509 13.12C202.509 12.8107 202.573 12.5147 202.701 12.232C202.829 11.944 203.016 11.6933 203.261 11.48C203.506 11.2613 203.808 11.088 204.165 10.96C204.522 10.832 204.93 10.768 205.389 10.768C205.922 10.768 206.4 10.8533 206.821 11.024C207.248 11.1893 207.616 11.4187 207.925 11.712L207.605 12.232ZM215.854 19H215.222C215.084 19 214.972 18.9787 214.886 18.936C214.801 18.8933 214.745 18.8027 214.718 18.664L214.558 17.912C214.345 18.104 214.137 18.2773 213.934 18.432C213.732 18.5813 213.518 18.7093 213.294 18.816C213.07 18.9173 212.83 18.9947 212.574 19.048C212.324 19.1013 212.044 19.128 211.734 19.128C211.42 19.128 211.124 19.0853 210.846 19C210.574 18.9093 210.337 18.776 210.134 18.6C209.932 18.424 209.769 18.2027 209.646 17.936C209.529 17.664 209.47 17.344 209.47 16.976C209.47 16.656 209.558 16.3493 209.734 16.056C209.91 15.7573 210.193 15.4933 210.582 15.264C210.977 15.0347 211.492 14.848 212.126 14.704C212.761 14.5547 213.537 14.4693 214.454 14.448V13.816C214.454 13.1867 214.318 12.712 214.046 12.392C213.78 12.0667 213.382 11.904 212.854 11.904C212.508 11.904 212.214 11.9493 211.974 12.04C211.74 12.1253 211.534 12.224 211.358 12.336C211.188 12.4427 211.038 12.5413 210.91 12.632C210.788 12.7173 210.665 12.76 210.542 12.76C210.446 12.76 210.361 12.736 210.286 12.688C210.217 12.6347 210.161 12.5707 210.118 12.496L209.862 12.04C210.31 11.608 210.793 11.2853 211.31 11.072C211.828 10.8587 212.401 10.752 213.03 10.752C213.484 10.752 213.886 10.8267 214.238 10.976C214.59 11.1253 214.886 11.3333 215.126 11.6C215.366 11.8667 215.548 12.1893 215.67 12.568C215.793 12.9467 215.854 13.3627 215.854 13.816V19ZM212.158 18.128C212.409 18.128 212.638 18.104 212.846 18.056C213.054 18.0027 213.249 17.9307 213.43 17.84C213.617 17.744 213.793 17.6293 213.958 17.496C214.129 17.3627 214.294 17.2107 214.454 17.04V15.352C213.798 15.3733 213.241 15.4267 212.782 15.512C212.324 15.592 211.95 15.6987 211.662 15.832C211.374 15.9653 211.164 16.1227 211.03 16.304C210.902 16.4853 210.838 16.688 210.838 16.912C210.838 17.1253 210.873 17.3093 210.942 17.464C211.012 17.6187 211.105 17.7467 211.222 17.848C211.34 17.944 211.478 18.016 211.638 18.064C211.798 18.1067 211.972 18.128 212.158 18.128ZM222.652 12.232C222.588 12.3493 222.489 12.408 222.356 12.408C222.276 12.408 222.185 12.3787 222.084 12.32C221.982 12.2613 221.857 12.1973 221.708 12.128C221.564 12.0533 221.39 11.9867 221.188 11.928C220.985 11.864 220.745 11.832 220.468 11.832C220.228 11.832 220.012 11.864 219.82 11.928C219.628 11.9867 219.462 12.0693 219.324 12.176C219.19 12.2827 219.086 12.408 219.012 12.552C218.942 12.6907 218.908 12.8427 218.908 13.008C218.908 13.216 218.966 13.3893 219.084 13.528C219.206 13.6667 219.366 13.7867 219.564 13.888C219.761 13.9893 219.985 14.08 220.236 14.16C220.486 14.2347 220.742 14.3173 221.004 14.408C221.27 14.4933 221.529 14.5893 221.78 14.696C222.03 14.8027 222.254 14.936 222.452 15.096C222.649 15.256 222.806 15.4533 222.924 15.688C223.046 15.9173 223.108 16.1947 223.108 16.52C223.108 16.8933 223.041 17.24 222.908 17.56C222.774 17.8747 222.577 18.1493 222.316 18.384C222.054 18.6133 221.734 18.7947 221.356 18.928C220.977 19.0613 220.54 19.128 220.044 19.128C219.478 19.128 218.966 19.0373 218.508 18.856C218.049 18.6693 217.66 18.432 217.34 18.144L217.676 17.6C217.718 17.5307 217.769 17.4773 217.828 17.44C217.886 17.4027 217.964 17.384 218.06 17.384C218.156 17.384 218.257 17.4213 218.364 17.496C218.47 17.5707 218.598 17.6533 218.748 17.744C218.902 17.8347 219.086 17.9173 219.3 17.992C219.518 18.0667 219.79 18.104 220.116 18.104C220.393 18.104 220.636 18.0693 220.844 18C221.052 17.9253 221.225 17.8267 221.364 17.704C221.502 17.5813 221.604 17.44 221.668 17.28C221.737 17.12 221.772 16.9493 221.772 16.768C221.772 16.544 221.71 16.36 221.588 16.216C221.47 16.0667 221.313 15.9413 221.116 15.84C220.918 15.7333 220.692 15.6427 220.436 15.568C220.185 15.488 219.926 15.4053 219.66 15.32C219.398 15.2347 219.14 15.1387 218.884 15.032C218.633 14.92 218.409 14.7813 218.212 14.616C218.014 14.4507 217.854 14.248 217.732 14.008C217.614 13.7627 217.556 13.4667 217.556 13.12C217.556 12.8107 217.62 12.5147 217.748 12.232C217.876 11.944 218.062 11.6933 218.308 11.48C218.553 11.2613 218.854 11.088 219.212 10.96C219.569 10.832 219.977 10.768 220.436 10.768C220.969 10.768 221.446 10.8533 221.868 11.024C222.294 11.1893 222.662 11.4187 222.972 11.712L222.652 12.232ZM224.485 18.12C224.485 17.9813 224.509 17.8507 224.557 17.728C224.611 17.6053 224.68 17.4987 224.765 17.408C224.856 17.3173 224.963 17.2453 225.085 17.192C225.208 17.1387 225.339 17.112 225.477 17.112C225.616 17.112 225.747 17.1387 225.869 17.192C225.992 17.2453 226.099 17.3173 226.189 17.408C226.28 17.4987 226.349 17.6053 226.397 17.728C226.451 17.8507 226.477 17.9813 226.477 18.12C226.477 18.264 226.451 18.3973 226.397 18.52C226.349 18.6373 226.28 18.7413 226.189 18.832C226.099 18.9227 225.992 18.992 225.869 19.04C225.747 19.0933 225.616 19.12 225.477 19.12C225.339 19.12 225.208 19.0933 225.085 19.04C224.963 18.992 224.856 18.9227 224.765 18.832C224.68 18.7413 224.611 18.6373 224.557 18.52C224.509 18.3973 224.485 18.264 224.485 18.12Z" fill="#151875"/>
<path d="M188 20.6H227.173V21.56H188V20.6Z" fill="#151875"/>
<path d="M104.552 14.744L102.752 10.08C102.699 9.94133 102.643 9.78133 102.584 9.6C102.525 9.41333 102.469 9.216 102.416 9.008C102.304 9.44 102.189 9.8 102.072 10.088L100.272 14.744H104.552ZM107.784 19H106.584C106.445 19 106.333 18.9653 106.248 18.896C106.163 18.8267 106.099 18.7387 106.056 18.632L104.984 15.864H99.84L98.768 18.632C98.736 18.728 98.6747 18.8133 98.584 18.888C98.4933 18.9627 98.3813 19 98.248 19H97.048L101.632 7.536H103.2L107.784 19ZM110.96 19.128C110.32 19.128 109.826 18.9493 109.48 18.592C109.138 18.2347 108.968 17.72 108.968 17.048V12.088H107.992C107.906 12.088 107.834 12.064 107.776 12.016C107.717 11.9627 107.688 11.8827 107.688 11.776V11.208L109.016 11.04L109.344 8.536C109.36 8.456 109.394 8.392 109.448 8.344C109.506 8.29067 109.581 8.264 109.672 8.264H110.392V11.056H112.736V12.088H110.392V16.952C110.392 17.2933 110.474 17.5467 110.64 17.712C110.805 17.8773 111.018 17.96 111.28 17.96C111.429 17.96 111.557 17.9413 111.664 17.904C111.776 17.8613 111.872 17.816 111.952 17.768C112.032 17.72 112.098 17.6773 112.152 17.64C112.21 17.5973 112.261 17.576 112.304 17.576C112.378 17.576 112.445 17.6213 112.504 17.712L112.92 18.392C112.674 18.6213 112.378 18.8027 112.032 18.936C111.685 19.064 111.328 19.128 110.96 19.128ZM118.926 12.232C118.862 12.3493 118.763 12.408 118.63 12.408C118.55 12.408 118.459 12.3787 118.358 12.32C118.257 12.2613 118.131 12.1973 117.982 12.128C117.838 12.0533 117.665 11.9867 117.462 11.928C117.259 11.864 117.019 11.832 116.742 11.832C116.502 11.832 116.286 11.864 116.094 11.928C115.902 11.9867 115.737 12.0693 115.598 12.176C115.465 12.2827 115.361 12.408 115.286 12.552C115.217 12.6907 115.182 12.8427 115.182 13.008C115.182 13.216 115.241 13.3893 115.358 13.528C115.481 13.6667 115.641 13.7867 115.838 13.888C116.035 13.9893 116.259 14.08 116.51 14.16C116.761 14.2347 117.017 14.3173 117.278 14.408C117.545 14.4933 117.803 14.5893 118.054 14.696C118.305 14.8027 118.529 14.936 118.726 15.096C118.923 15.256 119.081 15.4533 119.198 15.688C119.321 15.9173 119.382 16.1947 119.382 16.52C119.382 16.8933 119.315 17.24 119.182 17.56C119.049 17.8747 118.851 18.1493 118.59 18.384C118.329 18.6133 118.009 18.7947 117.63 18.928C117.251 19.0613 116.814 19.128 116.318 19.128C115.753 19.128 115.241 19.0373 114.782 18.856C114.323 18.6693 113.934 18.432 113.614 18.144L113.95 17.6C113.993 17.5307 114.043 17.4773 114.102 17.44C114.161 17.4027 114.235 17.384 114.326 17.384C114.422 17.384 114.523 17.4213 114.63 17.496C114.737 17.5707 114.865 17.6533 115.014 17.744C115.169 17.8347 115.355 17.9173 115.574 17.992C115.793 18.0667 116.065 18.104 116.39 18.104C116.667 18.104 116.91 18.0693 117.118 18C117.326 17.9253 117.499 17.8267 117.638 17.704C117.777 17.5813 117.878 17.44 117.942 17.28C118.011 17.12 118.046 16.9493 118.046 16.768C118.046 16.544 117.985 16.36 117.862 16.216C117.745 16.0667 117.587 15.9413 117.39 15.84C117.193 15.7333 116.966 15.6427 116.71 15.568C116.459 15.488 116.201 15.4053 115.934 15.32C115.673 15.2347 115.414 15.1387 115.158 15.032C114.907 14.92 114.683 14.7813 114.486 14.616C114.289 14.4507 114.129 14.248 114.006 14.008C113.889 13.7627 113.83 13.4667 113.83 13.12C113.83 12.8107 113.894 12.5147 114.022 12.232C114.15 11.944 114.337 11.6933 114.582 11.48C114.827 11.2613 115.129 11.088 115.486 10.96C115.843 10.832 116.251 10.768 116.71 10.768C117.243 10.768 117.721 10.8533 118.142 11.024C118.569 11.1893 118.937 11.4187 119.246 11.712L118.926 12.232ZM125.52 15.352C124.864 15.3733 124.304 15.4267 123.84 15.512C123.381 15.592 123.005 15.6987 122.712 15.832C122.424 15.9653 122.213 16.1227 122.08 16.304C121.952 16.4853 121.888 16.688 121.888 16.912C121.888 17.1253 121.923 17.3093 121.992 17.464C122.061 17.6187 122.155 17.7467 122.272 17.848C122.395 17.944 122.536 18.016 122.696 18.064C122.861 18.1067 123.037 18.128 123.224 18.128C123.475 18.128 123.704 18.104 123.912 18.056C124.12 18.0027 124.315 17.928 124.496 17.832C124.683 17.736 124.859 17.6213 125.024 17.488C125.195 17.3547 125.36 17.2027 125.52 17.032V15.352ZM120.92 12.04C121.368 11.608 121.851 11.2853 122.368 11.072C122.885 10.8587 123.459 10.752 124.088 10.752C124.541 10.752 124.944 10.8267 125.296 10.976C125.648 11.1253 125.944 11.3333 126.184 11.6C126.424 11.8667 126.605 12.1893 126.728 12.568C126.851 12.9467 126.912 13.3627 126.912 13.816V19H126.28C126.141 19 126.035 18.9787 125.96 18.936C125.885 18.888 125.827 18.7973 125.784 18.664L125.624 17.896C125.411 18.0933 125.203 18.2693 125 18.424C124.797 18.5733 124.584 18.7013 124.36 18.808C124.136 18.9093 123.896 18.9867 123.64 19.04C123.389 19.0987 123.109 19.128 122.8 19.128C122.485 19.128 122.189 19.0853 121.912 19C121.635 18.9093 121.392 18.776 121.184 18.6C120.981 18.424 120.819 18.2027 120.696 17.936C120.579 17.664 120.52 17.344 120.52 16.976C120.52 16.656 120.608 16.3493 120.784 16.056C120.96 15.7573 121.245 15.4933 121.64 15.264C122.035 15.0347 122.549 14.848 123.184 14.704C123.819 14.5547 124.597 14.4693 125.52 14.448V13.816C125.52 13.1867 125.384 12.712 125.112 12.392C124.84 12.0667 124.443 11.904 123.92 11.904C123.568 11.904 123.272 11.9493 123.032 12.04C122.797 12.1253 122.592 12.224 122.416 12.336C122.245 12.4427 122.096 12.5413 121.968 12.632C121.845 12.7173 121.723 12.76 121.6 12.76C121.504 12.76 121.421 12.736 121.352 12.688C121.283 12.6347 121.224 12.5707 121.176 12.496L120.92 12.04ZM130.425 12.072C130.601 11.8747 130.788 11.696 130.985 11.536C131.182 11.376 131.39 11.24 131.609 11.128C131.833 11.0107 132.068 10.9227 132.313 10.864C132.564 10.8 132.833 10.768 133.121 10.768C133.564 10.768 133.953 10.8427 134.289 10.992C134.63 11.136 134.913 11.344 135.137 11.616C135.366 11.8827 135.54 12.2053 135.657 12.584C135.774 12.9627 135.833 13.3813 135.833 13.84V19H134.401V13.84C134.401 13.2267 134.26 12.752 133.977 12.416C133.7 12.0747 133.276 11.904 132.705 11.904C132.284 11.904 131.889 12.0053 131.521 12.208C131.158 12.4107 130.822 12.6853 130.513 13.032V19H129.081V10.896H129.937C130.14 10.896 130.265 10.9947 130.313 11.192L130.425 12.072ZM139.507 10.896V19H138.083V10.896H139.507ZM139.811 8.352C139.811 8.49067 139.782 8.62133 139.723 8.744C139.67 8.86133 139.595 8.968 139.499 9.064C139.408 9.15467 139.299 9.22667 139.171 9.28C139.048 9.33333 138.918 9.36 138.779 9.36C138.64 9.36 138.51 9.33333 138.387 9.28C138.27 9.22667 138.166 9.15467 138.075 9.064C137.984 8.968 137.912 8.86133 137.859 8.744C137.806 8.62133 137.779 8.49067 137.779 8.352C137.779 8.21333 137.806 8.08267 137.859 7.96C137.912 7.832 137.984 7.72267 138.075 7.632C138.166 7.536 138.27 7.46133 138.387 7.408C138.51 7.35467 138.64 7.328 138.779 7.328C138.918 7.328 139.048 7.35467 139.171 7.408C139.299 7.46133 139.408 7.536 139.499 7.632C139.595 7.72267 139.67 7.832 139.723 7.96C139.782 8.08267 139.811 8.21333 139.811 8.352ZM143.319 7.216V19H141.895V7.216H143.319Z" fill="#FB2E86"/>
<path d="M97 23.08H144.495V23.792H97V23.08Z" fill="#FB2E86"/>
</svg>
